<svg xmlns="http://www.w3.org/2000/svg" viewBox="0 0 500 500"><g id="freepik--background-simple--inject-12"><path d="M382.37,96.07C333,67.89,291.68,110,281.62,146s-29,51-51.91,38.18S167.85,118,118.65,162s23.94,143.59,126.2,171c55.89,15,134.6,26.11,164.28-61.38C426.81,219.42,422.14,118.78,382.37,96.07Z" style="fill:#03A432"></path><g style="opacity:0.8;isolation:isolate"><path d="M382.37,96.07C333,67.89,291.68,110,281.62,146s-29,51-51.91,38.18S167.85,118,118.65,162s23.94,143.59,126.2,171c55.89,15,134.6,26.11,164.28-61.38C426.81,219.42,422.14,118.78,382.37,96.07Z" style="fill:#fafafa"></path></g></g><g id="freepik--Shadow--inject-12"><ellipse id="freepik--path--inject-12" cx="250" cy="416.24" rx="193.89" ry="11.32" style="fill:#f5f5f5"></ellipse></g><g id="freepik--Character--inject-12"><ellipse cx="369.38" cy="112.62" rx="25.43" ry="6.56" transform="translate(-9.57 38.32) rotate(-5.86)" style="fill:#03A432"></ellipse><path d="M381,107.07c.09,0,2.37.12,2,.77s-2.28.48-2.28.48Z" style="opacity:0.35000000000000003;isolation:isolate"></path><path d="M356.13,109.59s-1.92.33-1.51,1.49,4.45.6,4.45.6l-1-1.55Z" style="opacity:0.35000000000000003;isolation:isolate"></path><path d="M327,201.28l-14.27-13.65a7.34,7.34,0,0,0-1.77-4.74c-1.86-2-10.17-4.84-10.71-4.19s-1.31,8.69-.38,9.47,9.32,4.2,9.32,4.2L320.32,207Z" style="fill:#e4897b"></path><path d="M353.91,145.49l-5.5,3.13c-6.15,10.81-19.84,34.69-24,42a2.14,2.14,0,0,1-3.2.61l-3.42-2.71-7.64,10.58s11.35,11.82,15.23,10.65c7.44-2.27,26.84-35.09,26.84-35.09Z" style="fill:#03A432"></path><path d="M344.18,164s-7,22.89-6.76,33.77c3.92-5.53,7.82-11.68,10.63-16.26Z" style="opacity:0.4;isolation:isolate"></path><polygon points="349.06 403.04 340.71 403.92 336.12 361.15 349.06 359.83 349.06 403.04" style="fill:#e4897b"></polygon><path d="M336.63,365.91c3.18-.12,8.53-.39,12.43-.59v-5.49l-12.94,1.32Z" style="fill:#263238;opacity:0.2;isolation:isolate"></path><polygon points="390.69 402.43 382.61 402.43 376.42 355.89 389 354.3 390.69 402.43" style="fill:#e4897b"></polygon><polygon points="376.81 358.81 377.61 364.85 389.33 363.7 389 354.3 377.37 355.77 376.81 358.81" style="fill:#263238;opacity:0.2;isolation:isolate"></polygon><path d="M394.13,149A180.7,180.7,0,0,0,389,175.58c-.33,2.75-.61,5.46-.84,8.08-.3,3.33-.5,6.54-.67,9.59-.2,3.85-.26,8.41-.25,12.9,0,10.3.43,20.21.43,20.21-8.23,2-32,.69-45-.26a207.2,207.2,0,0,1-1.2-37.45A215.45,215.45,0,0,1,344.18,164a106.38,106.38,0,0,1,2.9-12.88,8.21,8.21,0,0,1,6.83-5.67c1.57-.19,3.39-.39,5.31-.5.74,0,1.48-.07,2.23-.09a160.85,160.85,0,0,1,18.35,1.28c1.15.13,2.32.31,3.46.49A106,106,0,0,1,394.13,149Z" style="fill:#03A432"></path><path d="M356.25,109.64s-1.86,9.83,4.05,14.12,5.92-16.46,5.92-16.46Z" style="fill:#f5f5f5"></path><path d="M356.25,109.64s-1.86,9.83,4.05,14.12,5.92-16.46,5.92-16.46Z" style="fill:#263238"></path><path d="M379.81,146.13c-3.94,3.58-13.59,2.25-13.59,2.25s-6-1.64-4.76-3.53c3.55-.58,5.27-2.24,6-4.36a10.38,10.38,0,0,0,.36-4.05c-.06-.75-.17-1.51-.3-2.26l11.93-8.84C377.87,131.17,376,141.9,379.81,146.13Z" style="fill:#e4897b"></path><path d="M376.67,131c-.47,7.16-6.35,9.13-9.23,9.53a10.38,10.38,0,0,0,.36-4.05Z" style="opacity:0.2;isolation:isolate"></path><path d="M377.47,132.61a10.09,10.09,0,0,1-11.61,3.92,11.26,11.26,0,0,1-6.43-5.23,11.83,11.83,0,0,1-.53-1.07c-2.91-6.81-3.84-18.72,3.36-23.19A11,11,0,0,1,379,115.3C379.89,123.26,380.79,127.9,377.47,132.61Z" style="fill:#e4897b"></path><path d="M369,110.13a2.53,2.53,0,0,1,3.74,3c-.77,3.09,1,13.44,4.49,9,0,0-.09-1.29,1-1.12s1.63,6.86-.09,10.29c0,0,2.83-3.26,3.77-10.46s.35-12.94-1.62-14.91-2.49.08-3.95-2.66-13.32-3-19.65,4.18C355.52,108.76,354.88,117.17,369,110.13Z" style="fill:#263238"></path><path d="M367.4,119.56c.16.63-.14,1.22-.56,1.29s-.85-.4-1-1,.14-1.22.56-1.29S367.29,118.91,367.4,119.56Z" style="fill:#263238"></path><path d="M360.13,120.8c.16.63-.14,1.22-.56,1.29s-.85-.4-1-1,.15-1.22.56-1.29S360,120.19,360.13,120.8Z" style="fill:#263238"></path><path d="M362.27,119.75a23.06,23.06,0,0,1-2.14,6c1,.49,2.34,1,3.36.57Z" style="fill:#de5753"></path><path d="M380.28,105.93c-1.45-1.45-2.11-.73-2.94-1.33l-6.79,2c.07,0,7.51-.24,11.59,4.44C381.84,108.68,381.22,106.87,380.28,105.93Z" style="opacity:0.35000000000000003;isolation:isolate"></path><path d="M383.56,121.19a7.61,7.61,0,0,1-3.66,4.53c-2.35,1.26-4.11-.7-3.95-3.23.16-2.25,1.56-5.68,4.17-5.88S384.23,118.8,383.56,121.19Z" style="fill:#e4897b"></path><polygon points="312.6 152.42 303.75 151.44 302.32 144.99 315.4 146.45 312.6 152.42"></polygon><path d="M292.66,290.19h-.1a1.72,1.72,0,0,1-1.52-1.89l16.52-148.41,3.51.39L294.55,288.68A1.72,1.72,0,0,1,292.66,290.19Z" style="fill:#263238"></path><path d="M334.38,114.57a46.79,46.79,0,0,0-6,14.19l-2.28,9.64a3.86,3.86,0,0,1-4.05,3h0l-7.72-.86c-3.67-.41-3.11-3.4-3.11-3.4h0l6.19-25.92-1,1.61a46.76,46.76,0,0,0-6,14.2L308,137.38c-.29.84-1.23,2.35-4.32,2l-4.88-.54-.1,0a2.84,2.84,0,0,1-2.33-3.49l6.22-26-1,1.6a46.76,46.76,0,0,0-6,14.2l-3,12.76,0,.18A9.94,9.94,0,0,0,301.3,149l16.19,1.8a9.91,9.91,0,0,0,10.93-8.65l7-29.19Z" style="fill:#03A432"></path><path d="M334.38,114.57a46.79,46.79,0,0,0-6,14.19l-2.28,9.64a3.86,3.86,0,0,1-4.05,3h0l-7.72-.86c-3.67-.41-3.11-3.4-3.11-3.4h0l6.19-25.92-1,1.61a46.76,46.76,0,0,0-6,14.2L308,137.38c-.29.84-1.23,2.35-4.32,2l-4.88-.54-.1,0a2.84,2.84,0,0,1-2.33-3.49l6.22-26-1,1.6a46.76,46.76,0,0,0-6,14.2l-3,12.76,0,.18A9.94,9.94,0,0,0,301.3,149l16.19,1.8a9.91,9.91,0,0,0,10.93-8.65l7-29.19Z" style="fill:#fff;opacity:0.5;isolation:isolate"></path><path d="M373.82,358.3l17.55-2.16c-.86-15.31-1.8-32.24-2.43-43.5-1.53-27.44-2.19-87.59-2.24-93.23H343.78c-3.49,19.08-13.35,79.59-10.37,140.69l17.43-1c.69-30.37,3.12-75.92,11.26-97.81,1.48,18.46,3.23,38.09,4.75,48.54C368.64,322.13,371.42,341.5,373.82,358.3Z" style="fill:#03A432"></path><path d="M373.82,358.3l17.55-2.16c-.86-15.31-1.8-32.24-2.43-43.5-1.27-22.79-1.94-68.15-2.16-86.09.3-.06.6-.12.87-.19,0,0-.41-9.91-.43-20.21,0-4.49,0-9.05.25-12.9.17-3.05.37-6.26.67-9.59.23-2.62.51-5.33.84-8.08A180.7,180.7,0,0,1,394.13,149a104.31,104.31,0,0,0-10.6-2.25c-6.49,7.28-9.95,26.44-9.95,26.44-6.14.09-23.39-1.8-23.39-1.8,1.49-18.92,5.63-25,6.68-26.19-1.05.1-2.05.21-3,.32a8.21,8.21,0,0,0-6.83,5.67,106.38,106.38,0,0,0-2.9,12.88,215.45,215.45,0,0,0-2.73,24.61,207.16,207.16,0,0,0,1.18,37.29c-4.1,24-11.92,78.86-9.23,134.16l17.44-1c.69-30.37,3.12-75.92,11.26-97.81,1.48,18.46,3.23,38.09,4.75,48.54C368.64,322.13,371.42,341.5,373.82,358.3Z" style="opacity:0.30000000000000004;isolation:isolate"></path><path d="M388.3,298c-.34-9.36-.61-20.07-.84-30.51l-5.9-3.37S382.76,292.83,388.3,298Z" style="opacity:0.35000000000000003;isolation:isolate"></path><polygon points="333.09 363.23 352.58 361.81 352.39 356.43 332.14 357.56 333.09 363.23" style="fill:#03A432"></polygon><polygon points="373.28 361.34 392.42 360.1 392.09 354.3 372.62 355.79 373.28 361.34" style="fill:#03A432"></polygon><path d="M355.44,408.37l-2.7-8.73-.16-26.21-17.88,1.1,3.38,26.26c-2.29,2.41-7.89,5.21-15.45,7.51-1.68.52-.8,4.62,3.39,4.28s13.33-1.41,16.37-1.66c4.92-.4,7.8-.4,11.73-.65a1.65,1.65,0,0,0,.32-.06A1.48,1.48,0,0,0,355.44,408.37Z" style="fill:#263238"></path><polygon points="332.85 373.43 353.78 371.91 353.78 378.83 333.68 379.74 332.85 373.43" style="fill:#263238"></polygon><path d="M397.1,409.13l-2.7-8.73-.16-26.21-17.88,1.1,3.38,26.25c-2.28,2.42-7.89,5.21-15.45,7.52-1.68.52-.8,4.62,3.4,4.28s13.32-1.41,16.36-1.66c4.93-.4,7.8-.4,11.73-.65a1.65,1.65,0,0,0,.32-.06A1.48,1.48,0,0,0,397.1,409.13Z" style="fill:#263238"></path><polygon points="374.51 374.19 395.44 372.67 395.44 379.59 375.34 380.5 374.51 374.19" style="fill:#263238"></polygon><path d="M349.65,180.92l3.17.84a50.22,50.22,0,0,0,14.9,1.58l4.19-.19-2.82,12.3a5.36,5.36,0,0,1-5.75,4.28l-8.82-.82a5.38,5.38,0,0,1-4.87-5.35Z" style="fill:#03A432"></path><path d="M349.65,180.92l3.17.84a50.22,50.22,0,0,0,14.9,1.58l4.19-.19-2.82,12.3a5.36,5.36,0,0,1-5.75,4.28l-8.82-.82a5.38,5.38,0,0,1-4.87-5.35Z" style="opacity:0.2;isolation:isolate"></path><path d="M407.32,272.59l-1.84-.42a27.64,27.64,0,0,0,.69-6.22c0-9.55-4.59-17.31-10.23-17.31S385.72,256.4,385.72,266h-1.89c0-10.58,5.44-19.2,12.11-19.2s12.11,8.62,12.11,19.2A29.57,29.57,0,0,1,407.32,272.59Z" style="fill:#263238"></path><path d="M381.57,264.09l5.35,28c0,1.2,4.43,2.18,9.9,2.18s9.9-1,9.9-2.18l5.35-28Z" style="fill:#ebebeb"></path><path d="M381.57,264.09l5.35,28c0,1.2,4.43,2.18,9.9,2.18s9.9-1,9.9-2.18l5.35-28Z" style="opacity:0.30000000000000004;isolation:isolate"></path><ellipse cx="396.82" cy="264.09" rx="15.25" ry="3.35" style="fill:#03A432"></ellipse><ellipse cx="396.82" cy="264.09" rx="15.25" ry="3.35" style="opacity:0.6000000000000001;isolation:isolate"></ellipse><ellipse cx="396.82" cy="265.95" rx="12.67" ry="1.49" style="opacity:0.35000000000000003;isolation:isolate"></ellipse><circle cx="406.36" cy="271.9" r="2.39" style="fill:#f5f5f5"></circle><path d="M404.54,267a11.89,11.89,0,0,1,1.13,4.29l1.1-.29.61-4.08,0-.39C406.49,266.69,405.55,266.84,404.54,267Z" style="opacity:0.4;isolation:isolate"></path><path d="M396.82,246.82v1.89c5.23.76,9.35,8.2,9.35,17.24a28.23,28.23,0,0,1-.5,5.32.94.94,0,0,0,.71,1.1h0a1,1,0,0,0,1.14-.72,30.52,30.52,0,0,0,.53-5.7C408.05,255.84,403.09,247.54,396.82,246.82Z" style="fill:#263238"></path><path d="M390.49,223.44l1.07,18.46a6.86,6.86,0,0,0-1.82,4.38c0,2.58,3.88,9.81,4.67,9.71s6.45-5.12,6.3-6.24-3.7-8.83-3.7-8.83l1.68-17.1Z" style="fill:#e4897b"></path><path d="M362.1,261.26a115.39,115.39,0,0,0-4.8,18.56c-1.2-16.42,3.6-33.83,3.6-33.83Z" style="opacity:0.2;isolation:isolate"></path><path d="M366.79,128a3.24,3.24,0,0,0-3.58.62,1.25,1.25,0,0,0-.12-.08,3.23,3.23,0,0,0-3.56,1c-1.88,2-2.49.93-2.49.93s1.27,3.4,4.7,1.24q.42-.27.75-.51a2.62,2.62,0,0,1,2.18-.42,4.69,4.69,0,0,0,1.12.12c3.16,0,4.14-3.2,4.14-3.2S369.38,129,366.79,128Z" style="fill:#263238"></path><path d="M368.38,107.27a63,63,0,0,1,14.16,0c-1.22-6.78-6.17-10.73-13.31-10.73-8,0-15.47,5.3-15.47,13.31,0,.19,0,.37,0,.55A61.28,61.28,0,0,1,368.38,107.27Z" style="fill:#03A432"></path><path d="M374.48,111.79c-.18.14-13.32,4-16.57.68s11-3.65,11-3.65l4.24.31Z" style="fill:#263238"></path><path d="M394.13,149s7.38-1,7.11,48.4c-.17,33.09.87,32.92.87,32.92l-15.32.75S376.67,149.08,394.13,149Z" style="fill:#03A432"></path><polygon points="384.59 226.34 403.54 226.14 403.67 231.04 384.87 231.55 384.59 226.34" style="fill:#03A432"></polygon><polygon points="384.59 226.34 403.54 226.14 403.67 231.04 384.87 231.55 384.59 226.34" style="fill:#fafafa;opacity:0.5;isolation:isolate"></polygon><polygon points="317 185.93 320.23 188.44 310.38 201.35 307.39 198.65 317 185.93" style="fill:#03A432"></polygon><polygon points="317 185.93 320.23 188.44 310.38 201.35 307.39 198.65 317 185.93" style="fill:#fafafa;opacity:0.5;isolation:isolate"></polygon><path d="M365,116.92H365a.32.32,0,0,1-.22-.4,2,2,0,0,1,1.74-1.3,2.17,2.17,0,0,1,2.22.85.33.33,0,0,1-.1.45.33.33,0,0,1-.45-.11,1.56,1.56,0,0,0-1.58-.55,1.39,1.39,0,0,0-1.21.85A.32.32,0,0,1,365,116.92Z" style="fill:#263238"></path><path d="M356.53,118h-.09a.33.33,0,0,1-.22-.41,2,2,0,0,1,1.74-1.3,2.19,2.19,0,0,1,2.22.85.32.32,0,0,1-.11.45.31.31,0,0,1-.44-.11,1.57,1.57,0,0,0-1.58-.54,1.37,1.37,0,0,0-1.21.84A.32.32,0,0,1,356.53,118Z" style="fill:#263238"></path></g><g id="freepik--Wheelbarrow--inject-12"><path d="M121.64,294.18c0,7.68-11.15,21.38-18.83,21.38s-9-13.7-9-21.38a13.91,13.91,0,1,1,27.82,0Z" style="fill:#03A432"></path><path d="M121.64,294.18c0,7.68-11.15,21.38-18.83,21.38s-9-13.7-9-21.38a13.91,13.91,0,1,1,27.82,0Z" style="fill:#fafafa;opacity:0.4;isolation:isolate"></path><path d="M114.73,277.87a7.39,7.39,0,0,0-3.78,5.4,7.34,7.34,0,0,0,10.37-5.59A7.4,7.4,0,0,0,114.73,277.87Z" style="fill:#03A432"></path><path d="M114.73,277.87a7.39,7.39,0,0,0-3.78,5.4,7.34,7.34,0,0,0,10.37-5.59A7.4,7.4,0,0,0,114.73,277.87Z" style="fill:#fafafa;opacity:0.2;isolation:isolate"></path><path d="M107.59,281.33a4.38,4.38,0,0,0,3.4,1.93,4.35,4.35,0,0,0-3.87-5.81A4.37,4.37,0,0,0,107.59,281.33Z" style="fill:#03A432"></path><path d="M107.59,281.33a4.38,4.38,0,0,0,3.4,1.93,4.35,4.35,0,0,0-3.87-5.81A4.37,4.37,0,0,0,107.59,281.33Z" style="fill:#fafafa;opacity:0.2;isolation:isolate"></path><path d="M175.54,288.92c2.5,7.27-3.58,23.85-10.85,26.35s-13-10-15.46-17.29a13.91,13.91,0,1,1,26.31-9.06Z" style="fill:#03A432"></path><path d="M175.54,288.92c2.5,7.27-3.58,23.85-10.85,26.35s-13-10-15.46-17.29a13.91,13.91,0,1,1,26.31-9.06Z" style="fill:#fafafa;opacity:0.4;isolation:isolate"></path><path d="M163.7,275.75a7.36,7.36,0,0,0-1.82,6.34,7.35,7.35,0,0,0,8-8.66A7.38,7.38,0,0,0,163.7,275.75Z" style="fill:#03A432"></path><path d="M163.7,275.75a7.36,7.36,0,0,0-1.82,6.34,7.35,7.35,0,0,0,8-8.66A7.38,7.38,0,0,0,163.7,275.75Z" style="fill:#fafafa;opacity:0.2;isolation:isolate"></path><path d="M158.07,281.34a4.35,4.35,0,0,0,3.84.72,4.35,4.35,0,0,0-5.55-4.22A4.33,4.33,0,0,0,158.07,281.34Z" style="fill:#03A432"></path><path d="M158.07,281.34a4.35,4.35,0,0,0,3.84.72,4.35,4.35,0,0,0-5.55-4.22A4.33,4.33,0,0,0,158.07,281.34Z" style="fill:#fafafa;opacity:0.2;isolation:isolate"></path><path d="M121.13,291.17c-.8,9,10.79,26.17,19.78,27s11.94-15.07,12.75-24.05a16.33,16.33,0,0,0-32.53-2.92Z" style="fill:#03A432"></path><path d="M121.13,291.17c-.8,9,10.79,26.17,19.78,27s11.94-15.07,12.75-24.05a16.33,16.33,0,0,0-32.53-2.92Z" style="fill:#fafafa;opacity:0.5;isolation:isolate"></path><path d="M130.92,272.84a8.67,8.67,0,0,1,3.86,6.7,8.62,8.62,0,0,1-11.54-7.61A8.64,8.64,0,0,1,130.92,272.84Z" style="fill:#03A432"></path><path d="M130.92,272.84a8.67,8.67,0,0,1,3.86,6.7,8.62,8.62,0,0,1-11.54-7.61A8.64,8.64,0,0,1,130.92,272.84Z" style="fill:#fafafa;opacity:0.2;isolation:isolate"></path><path d="M138.9,277.63a5.16,5.16,0,0,1-4.17,1.9,5.11,5.11,0,0,1,5.14-6.38A5.16,5.16,0,0,1,138.9,277.63Z" style="fill:#03A432"></path><path d="M138.9,277.63a5.16,5.16,0,0,1-4.17,1.9,5.11,5.11,0,0,1,5.14-6.38A5.16,5.16,0,0,1,138.9,277.63Z" style="fill:#fafafa;opacity:0.2;isolation:isolate"></path><path d="M175,284.82c-2.84,8.56,4.51,27.94,13.07,30.78s15.08-11.93,17.92-20.49a16.33,16.33,0,0,0-31-10.29Z" style="fill:#03A432"></path><path d="M175,284.82c-2.84,8.56,4.51,27.94,13.07,30.78s15.08-11.93,17.92-20.49a16.33,16.33,0,0,0-31-10.29Z" style="fill:#fafafa;opacity:0.5;isolation:isolate"></path><path d="M188.69,269.22a8.66,8.66,0,0,1,2.22,7.4,8.61,8.61,0,0,1-9.49-10.05A8.66,8.66,0,0,1,188.69,269.22Z" style="fill:#03A432"></path><path d="M188.69,269.22a8.66,8.66,0,0,1,2.22,7.4,8.61,8.61,0,0,1-9.49-10.05A8.66,8.66,0,0,1,188.69,269.22Z" style="fill:#fafafa;opacity:0.2;isolation:isolate"></path><path d="M195.36,275.7a5.09,5.09,0,0,1-4.49.9,5.1,5.1,0,0,1,6.46-5A5.11,5.11,0,0,1,195.36,275.7Z" style="fill:#03A432"></path><path d="M195.36,275.7a5.09,5.09,0,0,1-4.49.9,5.1,5.1,0,0,1,6.46-5A5.11,5.11,0,0,1,195.36,275.7Z" style="fill:#fafafa;opacity:0.2;isolation:isolate"></path><path d="M72.32,297.86H228.23s1.81,35.31-8.56,45c-8.81,8.26-76.63,15.83-103.34,18.92-5,.58-21.21-.88-25.25-4.45C80.9,348.33,73.5,330.39,72.32,297.86Z" style="fill:#03A432"></path><g style="opacity:0.35000000000000003;isolation:isolate"><path d="M91.08,357.35c4,3.57,20.26,5,25.25,4.45,5.75-.66,13.41-1.54,22-2.58,25.53-3.9,48.71-8.59,53.94-13.5,9.62-9,10.21-37,10.06-47.86h-130C73.5,330.39,80.9,348.33,91.08,357.35Z"></path></g><rect x="69.26" y="294.53" width="164.55" height="6.32" style="fill:#03A432"></rect><g style="opacity:0.4;isolation:isolate"><rect x="69.26" y="294.53" width="164.55" height="6.32" style="fill:#fafafa"></rect></g><circle cx="111.71" cy="392.74" r="26.53" transform="translate(-61.47 22.97) rotate(-9.22)" style="fill:#2e353a"></circle><g style="opacity:0.35000000000000003;isolation:isolate"><path d="M227.56,319.59,219.41,331a17.83,17.83,0,0,0-3,13.84h0a12.4,12.4,0,0,0,3.24-2C224.37,338.48,226.56,328.83,227.56,319.59Z"></path></g><path d="M124.11,392.74a12.4,12.4,0,1,0-12.4,12.4A12.4,12.4,0,0,0,124.11,392.74Z" style="fill:#f0f0f0"></path><path d="M117.34,392.74a5.63,5.63,0,1,0-5.63,5.63A5.63,5.63,0,0,0,117.34,392.74Z" style="fill:#263238"></path><path d="M225.25,415.38A14.58,14.58,0,0,1,211,404.09L199.81,353l-67.6,10.53-17.34,31a3.62,3.62,0,1,1-6.32-3.54l18.19-32.53a3.65,3.65,0,0,1,2.61-1.81l72.71-11.33a3.62,3.62,0,0,1,4.09,2.8l11.95,54.4a7.33,7.33,0,0,0,9.34,5.3,7.3,7.3,0,0,0,5-8.53L219.93,337.9a3.65,3.65,0,0,1,.27-2.28L235.7,303a3.64,3.64,0,0,1,2.54-2l59.47-12.31a3.63,3.63,0,0,1,1.47,7.1l-57.71,11.94-14.2,29.93,12.23,60.15a14.57,14.57,0,0,1-14.25,17.59Z" style="fill:#03A432"></path><g style="opacity:0.7000000000000001;isolation:isolate"><path d="M225.25,415.38A14.58,14.58,0,0,1,211,404.09L199.81,353l-67.6,10.53-17.34,31a3.62,3.62,0,1,1-6.32-3.54l18.19-32.53a3.65,3.65,0,0,1,2.61-1.81l72.71-11.33a3.62,3.62,0,0,1,4.09,2.8l11.95,54.4a7.33,7.33,0,0,0,9.34,5.3,7.3,7.3,0,0,0,5-8.53L219.93,337.9a3.65,3.65,0,0,1,.27-2.28L235.7,303a3.64,3.64,0,0,1,2.54-2l59.47-12.31a3.63,3.63,0,0,1,1.47,7.1l-57.71,11.94-14.2,29.93,12.23,60.15a14.57,14.57,0,0,1-14.25,17.59Z" style="fill:#fff"></path></g><path d="M279.17,289.74l27.17-5.53a6.34,6.34,0,0,1,2.52,12.42l-27.16,5.53C281.28,302.24,279.17,289.74,279.17,289.74Z" style="fill:#03A432"></path></g><g id="freepik--Box--inject-12"><path d="M257.37,372.15c0,4.87-7.06,13.54-11.92,13.54s-5.7-8.67-5.7-13.54a8.81,8.81,0,0,1,17.62,0Z" style="fill:#03A432"></path><path d="M257.37,372.15c0,4.87-7.06,13.54-11.92,13.54s-5.7-8.67-5.7-13.54a8.81,8.81,0,0,1,17.62,0Z" style="fill:#fafafa;opacity:0.5;isolation:isolate"></path><path d="M253,361.83a4.65,4.65,0,0,0-2.4,3.41,4.66,4.66,0,0,0,6.57-3.53A4.65,4.65,0,0,0,253,361.83Z" style="fill:#03A432"></path><path d="M253,361.83a4.65,4.65,0,0,0-2.4,3.41,4.66,4.66,0,0,0,6.57-3.53A4.65,4.65,0,0,0,253,361.83Z" style="fill:#fafafa;opacity:0.2;isolation:isolate"></path><path d="M248.48,364a2.77,2.77,0,0,0,2.14,1.22,2.75,2.75,0,0,0-2.45-3.68A2.78,2.78,0,0,0,248.48,364Z" style="fill:#03A432"></path><path d="M248.48,364a2.77,2.77,0,0,0,2.14,1.22,2.75,2.75,0,0,0-2.45-3.68A2.78,2.78,0,0,0,248.48,364Z" style="fill:#fafafa;opacity:0.2;isolation:isolate"></path><path d="M291.49,368.83c1.59,4.6-2.27,15.1-6.87,16.68s-8.2-6.35-9.79-10.95a8.81,8.81,0,1,1,16.66-5.73Z" style="fill:#03A432"></path><path d="M291.49,368.83c1.59,4.6-2.27,15.1-6.87,16.68s-8.2-6.35-9.79-10.95a8.81,8.81,0,1,1,16.66-5.73Z" style="fill:#fafafa;opacity:0.4;isolation:isolate"></path><path d="M284,360.49a4.68,4.68,0,0,0-1.15,4A4.65,4.65,0,0,0,287.9,359,4.66,4.66,0,0,0,284,360.49Z" style="fill:#03A432"></path><path d="M284,360.49a4.68,4.68,0,0,0-1.15,4A4.65,4.65,0,0,0,287.9,359,4.66,4.66,0,0,0,284,360.49Z" style="fill:#fafafa;opacity:0.2;isolation:isolate"></path><path d="M280.43,364a1.38,1.38,0,1,0-1.08-2.22A2.75,2.75,0,0,0,280.43,364Z" style="fill:#03A432"></path><path d="M280.43,364a1.38,1.38,0,1,0-1.08-2.22A2.75,2.75,0,0,0,280.43,364Z" style="fill:#fafafa;opacity:0.2;isolation:isolate"></path><path d="M257.05,370.25c-.51,5.69,6.83,16.56,12.52,17.07s7.56-9.54,8.07-15.22a10.34,10.34,0,1,0-20.59-1.85Z" style="fill:#03A432"></path><path d="M257.05,370.25c-.51,5.69,6.83,16.56,12.52,17.07s7.56-9.54,8.07-15.22a10.34,10.34,0,1,0-20.59-1.85Z" style="fill:#fafafa;opacity:0.5;isolation:isolate"></path><path d="M263.24,358.64a5.44,5.44,0,0,1,2.44,4.24,5.45,5.45,0,0,1-7.3-4.81A5.44,5.44,0,0,1,263.24,358.64Z" style="fill:#03A432"></path><path d="M263.24,358.64a5.44,5.44,0,0,1,2.44,4.24,5.45,5.45,0,0,1-7.3-4.81A5.44,5.44,0,0,1,263.24,358.64Z" style="fill:#fafafa;opacity:0.2;isolation:isolate"></path><path d="M268.3,361.67a3.29,3.29,0,0,1-2.64,1.21,3.23,3.23,0,0,1,3.25-4A3.25,3.25,0,0,1,268.3,361.67Z" style="fill:#03A432"></path><path d="M268.3,361.67a3.29,3.29,0,0,1-2.64,1.21,3.23,3.23,0,0,1,3.25-4A3.25,3.25,0,0,1,268.3,361.67Z" style="fill:#fafafa;opacity:0.2;isolation:isolate"></path><path d="M291.13,366.23c-1.8,5.42,2.86,17.69,8.27,19.49s9.55-7.56,11.35-13a10.34,10.34,0,1,0-19.62-6.51Z" style="fill:#03A432"></path><path d="M291.13,366.23c-1.8,5.42,2.86,17.69,8.27,19.49s9.55-7.56,11.35-13a10.34,10.34,0,1,0-19.62-6.51Z" style="fill:#fafafa;opacity:0.5;isolation:isolate"></path><path d="M299.82,356.35a5.46,5.46,0,0,1,1.4,4.69,5.46,5.46,0,0,1-6-6.37A5.5,5.5,0,0,1,299.82,356.35Z" style="fill:#03A432"></path><path d="M299.82,356.35a5.46,5.46,0,0,1,1.4,4.69,5.46,5.46,0,0,1-6-6.37A5.5,5.5,0,0,1,299.82,356.35Z" style="fill:#fafafa;opacity:0.2;isolation:isolate"></path><path d="M304,360.46a1.62,1.62,0,1,1,1.25-2.62A3.27,3.27,0,0,1,304,360.46Z" style="fill:#03A432"></path><path d="M304,360.46a1.62,1.62,0,1,1,1.25-2.62A3.27,3.27,0,0,1,304,360.46Z" style="fill:#fafafa;opacity:0.2;isolation:isolate"></path><polygon points="297.76 391.3 327.97 391.3 319.2 370.84 289 370.84 297.76 391.3" style="fill:#03A432"></polygon><rect x="264.54" y="370.84" width="54.63" height="45.18" style="fill:#03A432"></rect><rect x="264.54" y="370.84" width="54.63" height="45.18" style="fill:#fafafa;opacity:0.30000000000000004;isolation:isolate"></rect><rect x="235.67" y="370.84" width="42.34" height="45.18" style="fill:#03A432"></rect><rect x="235.67" y="370.84" width="42.34" height="45.18" style="fill:#e0e0e0;opacity:0.1;isolation:isolate"></rect><polygon points="235.67 393.43 270.68 393.43 278 370.84 235.67 370.84 235.67 393.43" style="opacity:0.35000000000000003;isolation:isolate"></polygon><polygon points="269.24 391.3 226.91 391.3 235.67 370.84 278 370.84 269.24 391.3" style="fill:#03A432"></polygon></g></svg>