<svg xmlns="http://www.w3.org/2000/svg" viewBox="0 0 500 500"><g id="freepik--background-complete--inject-11"><rect x="416.78" y="398.49" width="33.12" height="0.25" style="fill:#ebebeb"></rect><rect x="322.53" y="401.21" width="8.69" height="0.25" style="fill:#ebebeb"></rect><rect x="396.59" y="389.21" width="19.19" height="0.25" style="fill:#ebebeb"></rect><rect x="52.46" y="390.89" width="43.19" height="0.25" style="fill:#ebebeb"></rect><rect x="104.56" y="390.89" width="6.33" height="0.25" style="fill:#ebebeb"></rect><rect x="131.47" y="395.11" width="93.68" height="0.25" style="fill:#ebebeb"></rect><path d="M238.4,337.8H45.3a5.71,5.71,0,0,1-5.71-5.71V60.66A5.71,5.71,0,0,1,45.3,55H238.4a5.71,5.71,0,0,1,5.71,5.71V332.09A5.71,5.71,0,0,1,238.4,337.8ZM45.3,55.2a5.47,5.47,0,0,0-5.46,5.46V332.09a5.47,5.47,0,0,0,5.46,5.46H238.4a5.47,5.47,0,0,0,5.46-5.46V60.66a5.47,5.47,0,0,0-5.46-5.46Z" style="fill:#ebebeb"></path><path d="M454.7,337.8H261.6a5.71,5.71,0,0,1-5.71-5.71V60.66A5.71,5.71,0,0,1,261.6,55H454.7a5.71,5.71,0,0,1,5.71,5.71V332.09A5.71,5.71,0,0,1,454.7,337.8ZM261.6,55.2a5.47,5.47,0,0,0-5.46,5.46V332.09a5.47,5.47,0,0,0,5.46,5.46H454.7a5.47,5.47,0,0,0,5.46-5.46V60.66a5.47,5.47,0,0,0-5.46-5.46Z" style="fill:#ebebeb"></path><rect y="382.4" width="500" height="0.25" style="fill:#ebebeb"></rect><path d="M67.72,167.25C85.32,176,133,181.19,144.9,154.62c14.12-31.45-19.52-5.06-19.52-5.06s0-20.74-11.23-20.74c-15.31,0-14,19-14,19a14.69,14.69,0,0,0-14.9-7.42c-10.75,1.15-4.48,15.16-4.48,15.16S53.68,160.25,67.72,167.25Z" style="fill:#f0f0f0"></path><path d="M146.55,116.27c19.95,6.89,74.89,8.45,79.2-20.32,5.12-34.15-24.61-12.28-24.61-12.28s-.26-16-14-17.55-13.55,16.56-13.55,16.56-24.67-15.1-22.31,13.94C151.26,96.62,112.77,104.61,146.55,116.27Z" style="fill:#f5f5f5"></path><path d="M372.57,306.89s-39.61,22.39-34.29,9.88c0,0-35,15.89-29.33,1.85,0,0-19.77,1.88-12.17-10.31,0,0-14.13-5.84-3.57-17.31,0,0-10.26-18.3,5.13-16.7,0,0-8.43-12.66,8.76-13.68,0,0,.59-14.92,10.86-11.87,0,0-.59-24.44,10.27-19.62,0,0,4.82-21.42,11.76-14.48,0,0,5.26-19.61,19.23-5.43,0,0,11.2-5.43,17.71,10.56,0,0,11.55-12.37,13.25,4.83,0,0,21.62,6.75,17.4,13.48,0,0,19.23-5,15.8,10,0,0,19.22-1.51,11.66,21.73,0,0,17.37,7.31,7.63,15.12,0,0,9,9.42-7.63,10.88,0,0,5.43,10.59-18.71,1.95,0,0,10.26,16-10.56,9.07C405.77,306.89,400.37,317.24,372.57,306.89Z" style="fill:#f0f0f0"></path><polygon points="386.15 382.72 367.86 382.72 374.99 352.25 371.67 324.07 354.38 300.95 330.04 289.79 312.53 288.79 312.22 286.8 328.23 286.46 322.18 276.83 324 275.51 332.44 286.2 353.75 294.55 358.09 264.44 339.49 240.1 341.5 238.09 360.42 260.82 381.32 242.52 382.83 244.22 361.71 265.38 359.22 297.68 374.63 316.44 384.95 299.98 385.25 277.43 378.14 270.68 378.91 268.67 387.36 274.91 395.2 268.67 396.11 270.68 390.18 276.83 390.88 298.1 413.91 289.99 415.12 291.73 390.18 303.97 380.42 320.38 382.23 336.39 396.11 326.93 397.32 329.47 383.13 342.29 384.95 354.36 386.15 382.72" style="fill:#e0e0e0"></polygon><path d="M105.63,246.47s24-37.58,25.15-24.31c0,0,18.84-16.44,20.37-1.67,0,0,16.52-13.36,15.54.69,0,0,13.33-6.21,9.46,8.57,0,0,22.77,5.15,8.71,10.83,0,0,21.31,7.29,6.9,16.06,0,0,9.6,15.13-.69,17.21,0,0,.29,18.75-11.33,19.55,0,0,5.67,20.76-3.52,17.94,0,0,4.45,19.4-14.15,13.54,0,0-7.21,9.85-20.19-1,0,0,1.13,19.21-13.69,1.91,0,0-18.22,7.17-16.36-10.34,0,0-10,12.66-14-2,0,0-13.65,25.58-21.47-6.87,0,0-16.11,5.87-7.39-13.93,0,0-19.06-1.21-5.36-10.1,0,0-17.47-8.79,7.39-12.4,0,0-12.6-10.2,8.6-13.79C79.61,256.38,76.82,250.28,105.63,246.47Z" style="fill:#f0f0f0"></path><polygon points="109.19 382.72 127.12 382.72 123.68 352.86 123.39 325.24 140.33 302.59 164.18 283.38 181.34 282.39 181.64 280.45 165.96 280.12 171.88 270.68 170.1 269.38 161.83 279.86 140.94 296.32 146.16 266.81 159.06 242.97 157.09 240.99 143.87 263.26 123.39 245.33 121.91 247 142.61 267.73 135.59 299.38 120.48 317.77 115.7 298.69 113.63 279.55 120.6 272.93 119.84 270.96 111.56 277.07 101.5 265.04 100.62 267.01 108.79 278.96 109.89 296.84 87.31 284.17 86.13 285.87 110.56 302.59 114.81 321.63 116.59 337.32 115.7 343.1 113.92 354.93 109.19 382.72" style="fill:#e0e0e0"></polygon><path d="M318.66,133.34c20.95,7.24,78.62,8.87,83.14-21.33C407.18,76.16,376,99.12,376,99.12s-.27-16.78-14.71-18.43S347,98.08,347,98.08s-25.89-15.85-23.42,14.63C323.6,112.71,283.19,121.1,318.66,133.34Z" style="fill:#f0f0f0"></path><path d="M386,147.27c10.79,5.39,40,8.55,47.32-7.74,8.65-19.28-12-3.1-12-3.1s0-12.72-6.89-12.72c-9.38,0-8.59,11.63-8.59,11.63a9,9,0,0,0-9.14-4.55c-6.59.71-2.75,9.3-2.75,9.3S377.39,143,386,147.27Z" style="fill:#f5f5f5"></path><path d="M60.06,124.1c6.43,3.21,23.84,5.09,28.2-4.62,5.16-11.49-7.13-1.85-7.13-1.85s0-7.58-4.11-7.58c-5.59,0-5.12,6.93-5.12,6.93a5.37,5.37,0,0,0-5.44-2.71c-3.93.42-1.64,5.54-1.64,5.54S54.93,121.54,60.06,124.1Z" style="fill:#f5f5f5"></path></g><g id="freepik--Shadow--inject-11"><ellipse id="freepik--path--inject-11" cx="250" cy="415.69" rx="193.89" ry="11.32" style="fill:#f5f5f5"></ellipse></g><g id="freepik--Basket--inject-11"><path d="M228.55,356.73c-3.05-1.54-6-.5-8.88,4.47-2.39,4.21-7.3,3.67-7,6.82C213.48,377.07,242.65,363.9,228.55,356.73Z" style="fill:#06A634"></path><path d="M228.55,356.73c-3.05-1.54-6-.5-8.88,4.47-2.39,4.21-7.3,3.67-7,6.82C213.48,377.07,242.65,363.9,228.55,356.73Z" style="fill:#fff;opacity:0.30000000000000004"></path><path d="M228.55,356.73a6.55,6.55,0,0,0-1-.39s4.13,3.76,1.44,6.72-13.91,9-16.36,5C213.48,377.07,242.65,363.9,228.55,356.73Z" style="opacity:0.1"></path><path d="M218,366.1c-1.47-2.69-4.18-3.42-8.69-1.15-3.82,1.92-7.16-.95-8.49,1.54C197,373.65,224.85,378.57,218,366.1Z" style="fill:#06A634"></path><path d="M218,366.1c-1.47-2.69-4.18-3.42-8.69-1.15-3.82,1.92-7.16-.95-8.49,1.54C197,373.65,224.85,378.57,218,366.1Z" style="fill:#fff;opacity:0.5"></path><path d="M218,366.1a6.17,6.17,0,0,0-.51-.78s1.18,4.89-2.24,5.74-14.62-.29-14.43-4.57C197,373.65,224.85,378.57,218,366.1Z" style="opacity:0.1"></path><path d="M233.06,365.44c1.47-2.69,4.18-3.43,8.69-1.16,3.82,1.93,7.15-.95,8.49,1.55C254.07,373,226.23,377.91,233.06,365.44Z" style="fill:#06A634"></path><path d="M233.06,365.44c1.47-2.69,4.18-3.43,8.69-1.16,3.82,1.93,7.15-.95,8.49,1.55C254.07,373,226.23,377.91,233.06,365.44Z" style="fill:#fff;opacity:0.5"></path><path d="M233.06,365.44a5.64,5.64,0,0,1,.51-.79c0,.05-1.18,4.9,2.24,5.74s14.62-.29,14.43-4.56C254.07,373,226.23,377.91,233.06,365.44Z" style="opacity:0.1"></path><path d="M233.78,363c-2.46-1.83-5.23-1.37-8.39,2.58-2.67,3.34-6.89,2.11-7.07,4.93C217.83,378.61,245.19,371.48,233.78,363Z" style="fill:#06A634"></path><path d="M233.78,363c-2.46-1.83-5.23-1.37-8.39,2.58-2.67,3.34-6.89,2.11-7.07,4.93C217.83,378.61,245.19,371.48,233.78,363Z" style="fill:#fff;opacity:0.6000000000000001"></path><path d="M233.78,363a6.23,6.23,0,0,0-.8-.5s3.12,4,.36,6.15-13.41,5.83-15,1.86C217.83,378.61,245.19,371.48,233.78,363Z" style="opacity:0.1"></path><path d="M228.48,357.5s5.1-3.11,12.46-.14,8.87,2.21,8.87,2.21S238.05,367.54,228.48,357.5Z" style="fill:#06A634"></path><path d="M237.49,359.18a21.18,21.18,0,0,0,12.21.42c-.44.11-2.44.31-8.76-2.24-7.36-3-12.46.14-12.46.14A30.2,30.2,0,0,1,237.49,359.18Z" style="opacity:0.2"></path><path d="M199.86,373l4.68,34.75a7.61,7.61,0,0,0,7.54,6.59h24.46a7.61,7.61,0,0,0,7.54-6.59L248.76,373Z" style="fill:#06A634"></path><path d="M252.33,375.37H196.68a2.39,2.39,0,0,1-2.39-2.38h0a2.39,2.39,0,0,1,2.39-2.39h55.65a2.39,2.39,0,0,1,2.39,2.39h0A2.39,2.39,0,0,1,252.33,375.37Z" style="fill:#06A634"></path><g style="opacity:0.30000000000000004"><polygon points="218.89 370.6 217.2 370.6 212.43 375.37 214.12 375.37 218.89 370.6" style="fill:#fff"></polygon><polygon points="224.85 370.6 223.17 370.6 218.4 375.37 220.08 375.37 224.85 370.6" style="fill:#fff"></polygon><polygon points="212.93 370.6 211.24 370.6 206.47 375.37 208.16 375.37 212.93 370.6" style="fill:#fff"></polygon><path d="M196.27,375.33,201,370.6h-1.69l-4.18,4.19A2.37,2.37,0,0,0,196.27,375.33Z" style="fill:#fff"></path><polygon points="202.19 375.37 206.96 370.6 205.28 370.6 200.51 375.37 202.19 375.37" style="fill:#fff"></polygon><path d="M254,371.28a2.31,2.31,0,0,0-1.08-.6l-4.7,4.69h1.69Z" style="fill:#fff"></path><polygon points="248.71 370.6 247.02 370.6 242.25 375.37 243.94 375.37 248.71 370.6" style="fill:#fff"></polygon><polygon points="230.82 370.6 229.13 370.6 224.36 375.37 226.05 375.37 230.82 370.6" style="fill:#fff"></polygon><polygon points="242.74 370.6 241.06 370.6 236.29 375.37 237.97 375.37 242.74 370.6" style="fill:#fff"></polygon><polygon points="236.78 370.6 235.09 370.6 230.32 375.37 232.01 375.37 236.78 370.6" style="fill:#fff"></polygon></g><path d="M217.68,394.63h0a.72.72,0,0,1-1,0l-10.51-10.51a.72.72,0,0,1,0-1h0a.71.71,0,0,1,1,0l10.51,10.5A.74.74,0,0,1,217.68,394.63Z" style="fill:#06A634"></path><path d="M220.33,392h0a.74.74,0,0,1-1,0l-10.5-10.51a.71.71,0,0,1,0-1h0a.72.72,0,0,1,1,0L220.33,391A.74.74,0,0,1,220.33,392Z" style="fill:#06A634"></path><path d="M223,389.33h0a.74.74,0,0,1-1,0l-10.5-10.5a.72.72,0,0,1,0-1h0a.72.72,0,0,1,1,0L223,388.31A.72.72,0,0,1,223,389.33Z" style="fill:#06A634"></path><g style="opacity:0.30000000000000004"><path d="M217.68,394.63h0a.72.72,0,0,1-1,0l-10.51-10.51a.72.72,0,0,1,0-1h0a.71.71,0,0,1,1,0l10.51,10.5A.74.74,0,0,1,217.68,394.63Z" style="fill:#fff"></path><path d="M220.33,392h0a.74.74,0,0,1-1,0l-10.5-10.51a.71.71,0,0,1,0-1h0a.72.72,0,0,1,1,0L220.33,391A.74.74,0,0,1,220.33,392Z" style="fill:#fff"></path><path d="M223,389.33h0a.74.74,0,0,1-1,0l-10.5-10.5a.72.72,0,0,1,0-1h0a.72.72,0,0,1,1,0L223,388.31A.72.72,0,0,1,223,389.33Z" style="fill:#fff"></path></g><path d="M217.68,378.83l-10.51,10.5a.72.72,0,0,1-1,0h0a.72.72,0,0,1,0-1l10.51-10.51a.72.72,0,0,1,1,0h0A.74.74,0,0,1,217.68,378.83Z" style="fill:#06A634"></path><path d="M220.33,381.47,209.82,392a.72.72,0,0,1-1,0h0a.72.72,0,0,1,0-1l10.5-10.5a.74.74,0,0,1,1,0h0A.72.72,0,0,1,220.33,381.47Z" style="fill:#06A634"></path><path d="M223,384.12l-10.51,10.51a.74.74,0,0,1-1,0h0a.74.74,0,0,1,0-1L222,383.1a.72.72,0,0,1,1,0h0A.72.72,0,0,1,223,384.12Z" style="fill:#06A634"></path><g style="opacity:0.5"><path d="M217.68,378.83l-10.51,10.5a.72.72,0,0,1-1,0h0a.72.72,0,0,1,0-1l10.51-10.51a.72.72,0,0,1,1,0h0A.74.74,0,0,1,217.68,378.83Z" style="fill:#fff"></path><path d="M220.33,381.47,209.82,392a.72.72,0,0,1-1,0h0a.72.72,0,0,1,0-1l10.5-10.5a.74.74,0,0,1,1,0h0A.72.72,0,0,1,220.33,381.47Z" style="fill:#fff"></path><path d="M223,384.12l-10.51,10.51a.74.74,0,0,1-1,0h0a.74.74,0,0,1,0-1L222,383.1a.72.72,0,0,1,1,0h0A.72.72,0,0,1,223,384.12Z" style="fill:#fff"></path></g><path d="M225.75,411.08h0a.72.72,0,0,1-1,0l-10.51-10.51a.74.74,0,0,1,0-1h0a.74.74,0,0,1,1,0l10.5,10.51A.72.72,0,0,1,225.75,411.08Z" style="fill:#06A634"></path><path d="M228.4,408.43h0a.72.72,0,0,1-1,0l-10.51-10.51a.72.72,0,0,1,0-1h0a.72.72,0,0,1,1,0l10.5,10.5A.72.72,0,0,1,228.4,408.43Z" style="fill:#06A634"></path><path d="M231.05,405.78h0a.74.74,0,0,1-1,0l-10.5-10.51a.72.72,0,0,1,0-1h0a.72.72,0,0,1,1,0l10.51,10.5A.74.74,0,0,1,231.05,405.78Z" style="fill:#06A634"></path><g style="opacity:0.30000000000000004"><path d="M225.75,411.08h0a.72.72,0,0,1-1,0l-10.51-10.51a.74.74,0,0,1,0-1h0a.74.74,0,0,1,1,0l10.5,10.51A.72.72,0,0,1,225.75,411.08Z" style="fill:#fff"></path><path d="M228.4,408.43h0a.72.72,0,0,1-1,0l-10.51-10.51a.72.72,0,0,1,0-1h0a.72.72,0,0,1,1,0l10.5,10.5A.72.72,0,0,1,228.4,408.43Z" style="fill:#fff"></path><path d="M231.05,405.78h0a.74.74,0,0,1-1,0l-10.5-10.51a.72.72,0,0,1,0-1h0a.72.72,0,0,1,1,0l10.51,10.5A.74.74,0,0,1,231.05,405.78Z" style="fill:#fff"></path></g><path d="M225.75,395.27l-10.5,10.51a.74.74,0,0,1-1,0h0a.74.74,0,0,1,0-1l10.51-10.5a.72.72,0,0,1,1,0h0A.71.71,0,0,1,225.75,395.27Z" style="fill:#06A634"></path><path d="M228.4,397.92l-10.5,10.51a.74.74,0,0,1-1,0h0a.74.74,0,0,1,0-1l10.51-10.5a.71.71,0,0,1,1,0h0A.71.71,0,0,1,228.4,397.92Z" style="fill:#06A634"></path><path d="M231.05,400.57l-10.51,10.51a.72.72,0,0,1-1,0h0a.74.74,0,0,1,0-1L230,399.54a.74.74,0,0,1,1,0h0A.74.74,0,0,1,231.05,400.57Z" style="fill:#06A634"></path><g style="opacity:0.5"><path d="M225.75,395.27l-10.5,10.51a.74.74,0,0,1-1,0h0a.74.74,0,0,1,0-1l10.51-10.5a.72.72,0,0,1,1,0h0A.71.71,0,0,1,225.75,395.27Z" style="fill:#fff"></path><path d="M228.4,397.92l-10.5,10.51a.74.74,0,0,1-1,0h0a.74.74,0,0,1,0-1l10.51-10.5a.71.71,0,0,1,1,0h0A.71.71,0,0,1,228.4,397.92Z" style="fill:#fff"></path><path d="M231.05,400.57l-10.51,10.51a.72.72,0,0,1-1,0h0a.74.74,0,0,1,0-1L230,399.54a.74.74,0,0,1,1,0h0A.74.74,0,0,1,231.05,400.57Z" style="fill:#fff"></path></g><path d="M239.62,398h0a.74.74,0,0,1-1,0l-10.5-10.51a.71.71,0,0,1,0-1h0a.71.71,0,0,1,1,0l10.51,10.5A.74.74,0,0,1,239.62,398Z" style="fill:#06A634"></path><path d="M242.26,395.31h0a.72.72,0,0,1-1,0L230.73,384.8a.72.72,0,0,1,0-1h0a.74.74,0,0,1,1,0l10.5,10.5A.72.72,0,0,1,242.26,395.31Z" style="fill:#06A634"></path><path d="M244.91,392.66h0a.72.72,0,0,1-1,0l-10.51-10.5a.74.74,0,0,1,0-1h0a.74.74,0,0,1,1,0l10.5,10.51A.71.71,0,0,1,244.91,392.66Z" style="fill:#06A634"></path><g style="opacity:0.30000000000000004"><path d="M239.62,398h0a.74.74,0,0,1-1,0l-10.5-10.51a.71.71,0,0,1,0-1h0a.71.71,0,0,1,1,0l10.51,10.5A.74.74,0,0,1,239.62,398Z" style="fill:#fff"></path><path d="M242.26,395.31h0a.72.72,0,0,1-1,0L230.73,384.8a.72.72,0,0,1,0-1h0a.74.74,0,0,1,1,0l10.5,10.5A.72.72,0,0,1,242.26,395.31Z" style="fill:#fff"></path><path d="M244.91,392.66h0a.72.72,0,0,1-1,0l-10.51-10.5a.74.74,0,0,1,0-1h0a.74.74,0,0,1,1,0l10.5,10.51A.71.71,0,0,1,244.91,392.66Z" style="fill:#fff"></path></g><path d="M239.62,382.16l-10.51,10.5a.72.72,0,0,1-1,0h0a.71.71,0,0,1,0-1l10.5-10.51a.74.74,0,0,1,1,0h0A.74.74,0,0,1,239.62,382.16Z" style="fill:#06A634"></path><path d="M242.26,384.8l-10.5,10.51a.74.74,0,0,1-1,0h0a.74.74,0,0,1,0-1l10.51-10.5a.72.72,0,0,1,1,0h0A.71.71,0,0,1,242.26,384.8Z" style="fill:#06A634"></path><path d="M244.91,387.45,234.41,398a.74.74,0,0,1-1,0h0a.74.74,0,0,1,0-1l10.51-10.5a.71.71,0,0,1,1,0h0A.71.71,0,0,1,244.91,387.45Z" style="fill:#06A634"></path><g style="opacity:0.5"><path d="M239.62,382.16l-10.51,10.5a.72.72,0,0,1-1,0h0a.71.71,0,0,1,0-1l10.5-10.51a.74.74,0,0,1,1,0h0A.74.74,0,0,1,239.62,382.16Z" style="fill:#fff"></path><path d="M242.26,384.8l-10.5,10.51a.74.74,0,0,1-1,0h0a.74.74,0,0,1,0-1l10.51-10.5a.72.72,0,0,1,1,0h0A.71.71,0,0,1,242.26,384.8Z" style="fill:#fff"></path><path d="M244.91,387.45,234.41,398a.74.74,0,0,1-1,0h0a.74.74,0,0,1,0-1l10.51-10.5a.71.71,0,0,1,1,0h0A.71.71,0,0,1,244.91,387.45Z" style="fill:#fff"></path></g></g><g id="freepik--Mangos--inject-11"><path d="M375.7,408c-1.48-2.69-4.19-3.43-8.7-1.15-3.82,1.92-7.15-1-8.49,1.54C354.68,415.5,382.53,420.42,375.7,408Z" style="fill:#06A634"></path><path d="M375.7,408c-1.48-2.69-4.19-3.43-8.7-1.15-3.82,1.92-7.15-1-8.49,1.54C354.68,415.5,382.53,420.42,375.7,408Z" style="fill:#fff;opacity:0.5"></path><path d="M375.7,408a6.75,6.75,0,0,0-.52-.79s1.18,4.9-2.24,5.75-14.62-.3-14.43-4.57C354.68,415.5,382.53,420.42,375.7,408Z" style="opacity:0.1"></path><path d="M176.87,406.41c-2.24-2.58-5.41-2.74-9.91.8-3.8,3-8.15.64-9.07,3.67C155.24,419.57,187.23,418.37,176.87,406.41Z" style="fill:#06A634"></path><path d="M176.87,406.41c-2.24-2.58-5.41-2.74-9.91.8-3.8,3-8.15.64-9.07,3.67C155.24,419.57,187.23,418.37,176.87,406.41Z" style="fill:#fff;opacity:0.30000000000000004"></path><path d="M176.87,406.41a7.34,7.34,0,0,0-.75-.73c0,.05,2.4,5.05-1.2,6.77s-16.29,3.13-17-1.57C155.24,419.57,187.23,418.37,176.87,406.41Z" style="opacity:0.1"></path><path d="M206.17,411.63s-6.4-3.91-15.66-.18-11.14,2.78-11.14,2.78S194.15,424.25,206.17,411.63Z" style="fill:#06A634"></path><path d="M194.85,413.74a26.57,26.57,0,0,1-15.34.53c.55.14,3.06.38,11-2.82,9.26-3.73,15.66.18,15.66.18A38,38,0,0,0,194.85,413.74Z" style="opacity:0.2"></path><path d="M316.21,413.78s5.09-3.11,12.46-.14,8.87,2.21,8.87,2.21S325.77,423.82,316.21,413.78Z" style="fill:#06A634"></path><path d="M325.22,415.46a21.18,21.18,0,0,0,12.21.42c-.44.11-2.44.3-8.76-2.24-7.37-3-12.46.14-12.46.14A30.25,30.25,0,0,1,325.22,415.46Z" style="opacity:0.2"></path><path d="M127.21,410.67s5.09-3.12,12.46-.14,8.87,2.21,8.87,2.21S136.77,420.71,127.21,410.67Z" style="fill:#06A634"></path><path d="M136.22,412.35a21.28,21.28,0,0,0,12.21.42c-.44.11-2.44.3-8.76-2.24-7.37-3-12.46.14-12.46.14A30.25,30.25,0,0,1,136.22,412.35Z" style="opacity:0.2"></path><path d="M349.54,413.87s5.09-3.11,12.46-.14,8.87,2.21,8.87,2.21S359.1,423.91,349.54,413.87Z" style="fill:#06A634"></path><path d="M358.55,415.55a21.19,21.19,0,0,0,12.21.42c-.44.11-2.44.3-8.76-2.24-7.37-3-12.46.14-12.46.14A30.25,30.25,0,0,1,358.55,415.55Z" style="opacity:0.2"></path><path d="M314.43,406.45c2.23-2.65,5.39-2.85,9.86.67,3.79,3,8.12.55,9,3.6C336,419.49,304.1,418.69,314.43,406.45Z" style="fill:#06A634"></path><path d="M314.43,406.45c2.23-2.65,5.39-2.85,9.86.67,3.79,3,8.12.55,9,3.6C336,419.49,304.1,418.69,314.43,406.45Z" style="fill:#fff;opacity:0.4"></path><path d="M314.43,406.45a7.71,7.71,0,0,1,.75-.76c0,.05-2.4,5.15,1.19,6.85s16.21,2.94,16.95-1.82C336,419.49,304.1,418.69,314.43,406.45Z" style="opacity:0.1"></path><path d="M209.08,414.71s5.09-3.11,12.46-.14,8.87,2.21,8.87,2.21S218.64,424.76,209.08,414.71Z" style="fill:#06A634"></path><path d="M218.09,416.39a21.33,21.33,0,0,0,12.21.43c-.45.1-2.44.3-8.76-2.25-7.37-3-12.46.14-12.46.14A30.25,30.25,0,0,1,218.09,416.39Z" style="opacity:0.2"></path></g><g id="freepik--Tree--inject-11"><path d="M250.73,286s-8.41,15.59-12.43,15.5,0-12.4,0-12.4-11.11,13.5-15.6,12.4,0-8.52,0-8.52-21.16,20.57-16.51,4.12c0,0-32.87,23.63-30.52,7.6,0,0-25.06,19.66-16.54,2.82,0,0-35.86.94-12.16-10.29,0,0-36.16-3.86-13.27-11.23,0,0-34.77-2.93-10.63-9,0,0-28.69-17.34-1.94-13.71,0,0-20.27-17.57,2.41-15.35,0,0-20.86-19.54,6.6-12.5,0,0-14.4-8.38-13.06-14.4s14.07,0,14.07,0-8.37-11.72-5-16.08,11.95,7,11.95,7-2.9-15.71,1.45-17.39,9.41,10.38,9.41,10.38-2.68-11.63,1.82-14.69,9.57,7.35,9.57,7.35-7.74-34.25,6-20c0,0-9.59-29.57,7.59-16.53,0,0-4.24-14.08-1.56-18.1s11.75,3.71,11.75,3.71-3.31-17.77,0-20.12,10.79,5.25,10.79,5.25-4.8-11.61-1.78-16,10.6,3.65,10.6,3.65-3.91-10.68-1.23-14.7,11.39,5.69,11.39,5.69,14.25-9.31,18.68-6.67,0,9.77,0,9.77,16.86-6.45,20.69-1.76-5.22,8.71-5.22,8.71,17.42-4.69,21.1-.67-3.79,8-3.79,8,17.52-3.34,19.86,1-6.69,7.37-6.69,7.37,16.74-1.68,19.08,2-8.37,9-8.37,9,15.07-3.35,18.76,0-7.64,8.94-7.64,8.94,23-3.92,21.36,3.78c0,0,9.72-11.38,13.06-10s0,10,0,10,16.75-4.69,19.09-1.67-7,9-7,9,33.87,3.68,7.37,12.72c0,0,29.89,6.12,6.89,15,0,0,28.16,4.57,6.76,12.73,0,0,15.77,4.47,15.44,10.5s-10.72,4-10.72,4,12.74,15.73,10.72,19.75-13.73-2.68-13.73-2.68,10.72,14.74,7,21.77-12.72-7.53-12.72-7.53,9.34,20.92,4.17,23.6-11.54-8.37-11.54-8.37,4,15.41,1,17.75-10.67-7-10.67-7-.71,18-6.4,17S335.55,284,335.55,284s-6.83,17.93-13.53,17.5-2.73-11.29-2.73-11.29S301,313.91,302,293.73c0,0-21.06,22.06-14.74-2.24,0,0-18.7,24.13-14.9-2.26,0,0-15.22,22.38-11-1.67C261.34,287.56,248,318.1,250.73,286Z" style="fill:#06A634"></path><path d="M178.37,189.67a14.17,14.17,0,0,0-11-7.64c-7.86-.78-8.63-3.29-8.63-3.29S162.56,197.06,178.37,189.67Z" style="fill:#06A634"></path><path d="M178.37,189.67a14.17,14.17,0,0,0-11-7.64c-7.86-.78-8.63-3.29-8.63-3.29S162.56,197.06,178.37,189.67Z" style="opacity:0.2"></path><path d="M178.37,189.67a24.13,24.13,0,0,0-8.2-4.26c-5-1.53-7.49-.88-11-6.11a1.64,1.64,0,0,1-.38-.56S162.56,197.06,178.37,189.67Z" style="opacity:0.2"></path><path d="M181.18,190.11A18.45,18.45,0,0,1,191.8,175c10.38-5.09,10.66-7.84,10.66-7.84S203,191.27,181.18,190.11Z" style="fill:#06A634"></path><path d="M181.18,190.11A18.45,18.45,0,0,1,191.8,175c10.38-5.09,10.66-7.84,10.66-7.84S203,191.27,181.18,190.11Z" style="opacity:0.2"></path><path d="M191.25,181.42a25.68,25.68,0,0,0,11.16-14.09c-.24.67-1.71,3.31-10.61,7.67a18.45,18.45,0,0,0-10.62,15.11A34.46,34.46,0,0,1,191.25,181.42Z" style="opacity:0.2"></path><path d="M372.58,222.33s10.38,2,10.72-4-15.44-10.5-15.44-10.5c21.4-8.16-6.76-12.73-6.76-12.73,23-8.83-6.89-15-6.89-15,17-5.79,9.16-9.39,1.36-11.22-1.21,3.36-7.65.63-7.65.63,3.63,4-2.51,16.69-2.51,16.69s10.87-7.55,12.89-1.68-10.1,16-10.1,16c24.25-10.31,7.69,11.73,7.69,11.73,20.49-4.93,4.2,15.07,4.2,15.07,24.05-6.82,0,14,0,14,22.92,3.2-8.57,10.28-8.57,10.28,21.94,4.64-10.69,12.82-10.69,12.82C364,272.79,331,276.14,331,276.14c10,15.83-15.52-.86-15.52-.86,4.24,15.76-29-4-29-4,6.41,15.92-15.66-2.15-15.66-2.15s5.08,6.89,1.11,8.53-15.91-10.56-15.91-10.56,5.28,11.84,1.61,12.42-13.41-14-13.41-14c6.71,31.85-9.51,2.88-9.51,2.88,7,23.56-9.86,3-9.86,3,6.93,26-13.35,4-13.35,4,9,23.57-13.22,4-13.22,4,3.52,20.08-16.33-1.51-16.33-1.51s5,10.4-1,11.62-14.67-15.89-14.67-15.89,2.26,11.62-2.83,13.3-8.08-16.27-8.08-16.27-5.81,10.24-8.88,8.26S145.12,261,145.12,261s-4.39,11.82-9.48,9.76.74-24.13.74-24.13-5.35,15.66-9.64,9.06,4.38-17.19,4.38-17.19-12.07,5.2-14.85-3.11h0c-2.12,3.67,7.27,12.46,7.27,12.46-22.68-2.22-2.41,15.35-2.41,15.35-26.75-3.63,1.94,13.71,1.94,13.71-24.14,6.07,10.63,9,10.63,9C110.81,293.32,147,297.18,147,297.18c-23.7,11.23,12.16,10.29,12.16,10.29-8.52,16.84,16.54-2.82,16.54-2.82-2.35,16,30.52-7.6,30.52-7.6-4.65,16.45,16.51-4.12,16.51-4.12s-4.49,7.42,0,8.52,15.6-12.4,15.6-12.4-4,12.3,0,12.4S250.73,286,250.73,286c-2.75,32.15,10.61,1.61,10.61,1.61-4.23,24.05,11,1.67,11,1.67-3.8,26.39,14.9,2.26,14.9,2.26-6.32,24.3,14.74,2.24,14.74,2.24-1,20.18,17.32-3.57,17.32-3.57s-4,10.86,2.73,11.29S335.55,284,335.55,284s-.81,11.71,4.89,12.72,6.4-17,6.4-17,7.66,9.31,10.67,7-1-17.75-1-17.75,6.36,11.05,11.54,8.37-4.17-23.6-4.17-23.6,9,14.56,12.72,7.53-7-21.77-7-21.77,11.72,6.7,13.73,2.68S372.58,222.33,372.58,222.33Z" style="opacity:0.2"></path><path d="M230.77,217a1.06,1.06,0,0,0-.08-.64c-2.48-.27-7-2.42-7-2.42s.22,15.65-5.39,4.07c0,0-1.11,14-6.43,4,0,0-.51,13.1-5.43,3.8,0,0-1.15,7.44-3.92,7.62s-2.43-4.66-2.43-4.66-6.47,6.69-8.41,6,.45-6.42.45-6.42-6.12,5.72-9.53,4.43,2.72-6.22,2.72-6.22-9,5.43-10.53,3.22S178,224,178,224s-5.39,1.05-6.63-.19,1.18-3.62,1.18-3.62-5,0-4.18-2.58,5.64-1.41,5.64-1.41-11.7-2.81-12.72-5.77c-5,1.61,4.71,7.34,4.71,7.34s-5.17-1.2-5,1.88,8.73,5.19,8.73,5.19-5.38.28-5.52,2.94,8.12,2,8.12,2-3.82,4-2.59,5.26,8-1.45,8-1.45-4.68,3.52-3.17,5.73,10.53-3.22,10.53-3.22-6.13,4.93-2.72,6.22,9.53-4.43,9.53-4.43-2.4,5.72-.45,6.42,8.41-6,8.41-6-.34,4.85,2.43,4.66,3.92-7.62,3.92-7.62c4.92,9.3,5.43-3.8,5.43-3.8,5.32,10,6.43-4,6.43-4,5.61,11.58,5.39-4.07,5.39-4.07s3.27,3.92,4.51,2.68-1.83-8.61-1.83-8.61S230.35,218.58,230.77,217Z" style="opacity:0.1"></path><path d="M252.12,212.75a1.25,1.25,0,0,1-.29-.75c2.56-1.82,6.18-6.95,6.18-6.95s9.36,17.37,8.44,1.18c0,0,9.79,14.71,9.52.44,0,0,8.59,14.11,8.3.85,0,0,5.84,7.49,9,6s-.18-6.63-.18-6.63,11.22,3.4,12.94,1.44-4.44-6.78-4.44-6.78,10.24,2.54,13.21-1-6.81-5.19-6.81-5.19,13.26.45,13.57-2.91-7-4.36-7-4.36,6.59-2.15,7.19-4.28-3.51-3.26-3.51-3.26,5.49-3,3-5.4-7.08,1.9-7.08,1.9,11.17-10.27,10.48-14.15c6.45-1.28-.69,11-.69,11s5-4.49,6.65-1S324.16,184,324.16,184s6.11-3,7.89-.15-7.74,7.15-7.74,7.15,6.68,2.08,6.07,4.2-9.74,3.33-9.74,3.33,7.32,1,7,4.37-13.57,2.91-13.57,2.91,9.78,1.67,6.81,5.18-13.21,1-13.21,1,6.15,4.82,4.44,6.78-12.94-1.44-12.94-1.44,3.34,5.13.18,6.62-9-6-9-6c.29,13.26-8.3-.85-8.3-.85.27,14.26-9.52-.44-9.52-.44.92,16.19-8.44-1.18-8.44-1.18s-1.2,6.32-3.32,5.72-3.27-10.6-3.27-10.6S253.57,214.25,252.12,212.75Z" style="opacity:0.1"></path><path d="M342.76,237.15c-1.42-3.7,4.17-13.51,6.19-16.85a1.44,1.44,0,0,0-.41-1.92h0a1.44,1.44,0,0,0-2.1.48l-6.35,13.64a10.41,10.41,0,0,1-4.72,4.91L293.76,258.8a3.16,3.16,0,0,1-4.61-2.61L286.78,218a1.72,1.72,0,0,0-1.72-1.62h0a1.72,1.72,0,0,0-1.73,1.81c.44,7.75,4,35,.93,45.58-3.13,10.72-25.33,41.26-25.33,41.26s-24.91-20.21-30.37-29.5c-3.4-5.79-6.16-20.41-4.45-26.64,2.42-8.82,20.59-28.71,20.59-28.71a1.37,1.37,0,0,0-.19-1.89h0a1.36,1.36,0,0,0-1.91.16l-16.89,19.74a3.23,3.23,0,0,1-5.66-1.68L216.42,209a6.24,6.24,0,0,1,.9-4.17l18.07-28.87a5.09,5.09,0,0,1,3-2.27l19.93-5.51a.86.86,0,0,0,.62-.82h0a.85.85,0,0,0-1.05-.83L239.46,171a3.92,3.92,0,0,1-4.43-2l-11.88-23.37a.85.85,0,0,0-1.22-.33l-.22.14a.85.85,0,0,0-.31,1.07l10.92,24.13a5,5,0,0,1-.36,4.85l-17.65,27.34a3.23,3.23,0,0,1-4.24,1.1l-30.13-16.15a1.23,1.23,0,0,0-1.45.21h0a1.23,1.23,0,0,0,.25,1.93l30.81,17.85a6.3,6.3,0,0,1,3.1,4.76l7,55.63a1.87,1.87,0,0,1-2.6,1.94L179.16,253.5a8.71,8.71,0,0,1-3.09-2.25l-14.14-16.08a1.35,1.35,0,0,0-1.82-.19h0a1.34,1.34,0,0,0-.3,1.87l10.64,14.83-33.78,3.85a1.31,1.31,0,0,0-1.16,1.3h0a1.3,1.3,0,0,0,1.41,1.31c6.14-.47,30.66-2.22,39.41-.58,12.47,2.35,35.51,14.57,45.7,22.14,9.33,6.94,31.44,34.25,31.44,34.25l.81,19.61s-3-4.2-4.27-5.41c-3-3-10.37-7.56-13.57-10.39-3.62-3.2-12.93-14.35-12.93-14.35a1,1,0,0,0-1.48.07h0a1,1,0,0,0,0,1.09L229.58,316,203.68,311a1,1,0,0,0-1,.46h0a1,1,0,0,0,.61,1.45s21.41,3.8,28,6.7c4.68,2.07,12.84,8.71,16,12.71,2.74,3.42,7.6,15.8,7.6,15.8s8.41,46.11,4.05,57.92c-1.43,3.88-11.65,11.75-11.65,11.75h5.15s5.79-6.36,8.31-7.64c1.18-.6,4.31-2,5.19-1,1.51,1.71-2.88,8.67-2.88,8.67H268s3.21-7.83,5.42-9.41a5.73,5.73,0,0,1,3.23-.65c1.57.29,4.26,2.67,4.84,4.15s-.69,5.91-.69,5.91H285s1.19-4.15,1-5.56a20.43,20.43,0,0,0-1.73-4.15l21.8,9.71h4.82s-20.61-9.09-25.2-14.77c-7.75-9.61-11.55-35.21-14.56-47.19-2.67-10.6-6.4-32.65-4.85-43.48,1.69-11.76,14-33.48,22.31-42,8-8.16,35.28-23.11,45.65-28.65a8.79,8.79,0,0,1,8.09-.1l19,9.51a1.84,1.84,0,0,0,2.27-.9h0a1.83,1.83,0,0,0-1.1-2.56C357.38,246.09,344.51,241.71,342.76,237.15Z" style="fill:#263238"></path><path d="M310.88,417.76s-20.61-9.09-25.2-14.77c-7.75-9.61-11.55-35.21-14.56-47.19-2.67-10.6-6.4-32.65-4.85-43.48.9-6.29,4.85-15.44,9.59-23.88-4,4.81-9.47,11.67-11,14.44s-4.28,8.35-4.67,11.41c-.57,4.49,1.84,13.45,2.59,17.91.91,5.34,3.41,15.91,4.15,21.28.28,2,.57,5.53.83,9.14a.86.86,0,0,1-1.69.25,95.5,95.5,0,0,0-3.29-12,86.69,86.69,0,0,0-5.67-9.89.54.54,0,0,0-1,.48c1.37,3.82,3.18,9,3.79,11.49,1.54,6.24,4.24,19.26,6.1,25.42,1.94,6.48,11.28,21.8,8.43,23.87-1.72,1.25-4-3.13-5.64-6.94a.53.53,0,0,0-1,.26c.24,2.52.16,5-1.12,5.13-2.73.21-5-5.48-6.64-11.85.38,7.32.2,13.71-1.08,17.16-1.43,3.88-11.65,11.75-11.65,11.75h5.15s5.79-6.36,8.31-7.64c1.18-.6,4.31-2,5.19-1,1.51,1.71-2.88,8.67-2.88,8.67H268s3.21-7.83,5.42-9.41a5.73,5.73,0,0,1,3.23-.65c1.57.29,4.26,2.67,4.84,4.15s-.69,5.91-.69,5.91H285s1.19-4.15,1-5.56a20.43,20.43,0,0,0-1.73-4.15l21.8,9.71ZM270,378.12c8.56,9.08,9.06,21.54,9.06,21.54Z" style="opacity:0.2"></path><path d="M182.7,192a18.42,18.42,0,0,1-11,14.81c-10.52,4.8-10.88,7.54-10.88,7.54S161,190.22,182.7,192Z" style="fill:#06A634"></path><path d="M182.7,192a18.42,18.42,0,0,1-11,14.81c-10.52,4.8-10.88,7.54-10.88,7.54S161,190.22,182.7,192Z" style="opacity:0.2"></path><path d="M172.4,200.38a25.73,25.73,0,0,0-11.55,13.78c.25-.66,1.8-3.25,10.82-7.37a18.42,18.42,0,0,0,11-14.81A34.33,34.33,0,0,1,172.4,200.38Z" style="opacity:0.2"></path><path d="M191.42,195.71s2.42-4.43,9.38-2.57,14-3.85,14-3.85S205.53,209.87,191.42,195.71Z" style="fill:#06A634"></path><path d="M191.42,195.71s2.42-4.43,9.38-2.57,14-3.85,14-3.85S205.53,209.87,191.42,195.71Z" style="opacity:0.2"></path><path d="M214.82,189.29s-7.59,9.4-13.42,6.33-10,.09-10,.09C205.53,209.87,214.82,189.29,214.82,189.29Z" style="opacity:0.2"></path><path d="M180.76,189.29s2.9-7.36-3.93-16.91-5.41-11.81-5.41-11.81S159.34,174.91,180.76,189.29Z" style="fill:#06A634"></path><path d="M180.76,189.29s2.9-7.36-3.93-16.91-5.41-11.81-5.41-11.81S159.34,174.91,180.76,189.29Z" style="opacity:0.2"></path><path d="M180.76,189.29a38.4,38.4,0,0,0-4.16-11.83c-3.43-6.61-6.39-9.18-5.3-16.15a1.63,1.63,0,0,1,.12-.74S159.34,174.91,180.76,189.29Z" style="opacity:0.2"></path><path d="M184.19,192a14.18,14.18,0,0,0,.45,13.39c4.08,6.77,2.53,8.89,2.53,8.89S199.56,200.23,184.19,192Z" style="fill:#06A634"></path><path d="M184.19,192a14.18,14.18,0,0,0,.45,13.39c4.08,6.77,2.53,8.89,2.53,8.89S199.56,200.23,184.19,192Z" style="opacity:0.2"></path><path d="M184.19,192a24.13,24.13,0,0,0,1.48,9.13c1.76,4.9,3.78,6.52,1.72,12.51a1.74,1.74,0,0,1-.22.64S199.56,200.23,184.19,192Z" style="opacity:0.2"></path><path d="M225.24,149.45A14.2,14.2,0,0,0,238.55,151c7.29-3,9.16-1.19,9.16-1.19S235.68,135.47,225.24,149.45Z" style="fill:#06A634"></path><path d="M225.24,149.45A14.2,14.2,0,0,0,238.55,151c7.29-3,9.16-1.19,9.16-1.19S235.68,135.47,225.24,149.45Z" style="opacity:0.2"></path><path d="M225.24,149.45a24,24,0,0,0,9.24-.11c5.11-1,7-2.77,12.63.15a1.8,1.8,0,0,1,.6.31S235.68,135.47,225.24,149.45Z" style="opacity:0.2"></path><path d="M219.74,147.72s-3.78-8.28-13.25-9.21-10.4-4-10.4-4S200.7,156.61,219.74,147.72Z" style="fill:#06A634"></path><path d="M219.74,147.72s-3.78-8.28-13.25-9.21-10.4-4-10.4-4S200.7,156.61,219.74,147.72Z" style="opacity:0.2"></path><path d="M219.74,147.72a28.87,28.87,0,0,0-9.88-5.14c-6-1.84-9-1.06-13.31-7.36a2.13,2.13,0,0,1-.46-.67S200.7,156.61,219.74,147.72Z" style="opacity:0.2"></path><path d="M256.81,167.21a18.44,18.44,0,0,1,10.62-15.11c10.38-5.09,10.66-7.84,10.66-7.84S278.58,168.37,256.81,167.21Z" style="fill:#06A634"></path><path d="M256.81,167.21a18.44,18.44,0,0,1,10.62-15.11c10.38-5.09,10.66-7.84,10.66-7.84S278.58,168.37,256.81,167.21Z" style="opacity:0.2"></path><path d="M266.88,158.52A25.71,25.71,0,0,0,278,144.43c-.24.67-1.71,3.3-10.61,7.67a18.44,18.44,0,0,0-10.62,15.11A34.63,34.63,0,0,1,266.88,158.52Z" style="opacity:0.2"></path><path d="M222.48,145.47a22.18,22.18,0,0,1-8.84-20.41c1.29-13.86-1.36-15.89-1.36-15.89S237.36,123.83,222.48,145.47Z" style="fill:#06A634"></path><path d="M222.48,145.47a22.18,22.18,0,0,1-8.84-20.41c1.29-13.86-1.36-15.89-1.36-15.89S237.36,123.83,222.48,145.47Z" style="opacity:0.2"></path><path d="M219.89,129.66a31,31,0,0,0-7.46-20.33c.53.67,2.31,3.84,1.21,15.73a22.18,22.18,0,0,0,8.84,20.41A41.6,41.6,0,0,1,219.89,129.66Z" style="opacity:0.2"></path><path d="M263.66,169.81s2.41-4.43,9.38-2.58,14-3.84,14-3.84S277.77,184,263.66,169.81Z" style="fill:#06A634"></path><path d="M263.66,169.81s2.41-4.43,9.38-2.58,14-3.84,14-3.84S277.77,184,263.66,169.81Z" style="opacity:0.2"></path><path d="M287.05,163.39s-7.58,9.39-13.42,6.32-10,.1-10,.1C277.77,184,287.05,163.39,287.05,163.39Z" style="opacity:0.2"></path><path d="M256.39,166.39s2.9-7.36-3.93-16.92-5.41-11.8-5.41-11.8S235,152,256.39,166.39Z" style="fill:#06A634"></path><path d="M256.39,166.39s2.9-7.36-3.93-16.92-5.41-11.8-5.41-11.8S235,152,256.39,166.39Z" style="opacity:0.2"></path><path d="M256.39,166.39a38.4,38.4,0,0,0-4.16-11.83c-3.43-6.61-6.39-9.18-5.3-16.15a1.58,1.58,0,0,1,.12-.74S235,152,256.39,166.39Z" style="opacity:0.2"></path><path d="M259.82,169.07a14.18,14.18,0,0,0,.45,13.39c4.08,6.76,2.53,8.88,2.53,8.88S275.19,177.32,259.82,169.07Z" style="fill:#06A634"></path><path d="M259.82,169.07a14.18,14.18,0,0,0,.45,13.39c4.08,6.76,2.53,8.88,2.53,8.88S275.19,177.32,259.82,169.07Z" style="opacity:0.2"></path><path d="M259.82,169.07a24.07,24.07,0,0,0,1.48,9.12c1.76,4.91,3.78,6.53,1.72,12.51a1.64,1.64,0,0,1-.22.64S275.19,177.32,259.82,169.07Z" style="opacity:0.2"></path><path d="M287.71,220.69a14.17,14.17,0,0,0-11-7.64c-7.86-.78-8.63-3.29-8.63-3.29S271.9,228.08,287.71,220.69Z" style="fill:#06A634"></path><path d="M287.71,220.69a14.17,14.17,0,0,0-11-7.64c-7.86-.78-8.63-3.29-8.63-3.29S271.9,228.08,287.71,220.69Z" style="opacity:0.2"></path><path d="M287.71,220.69a24.13,24.13,0,0,0-8.2-4.26c-5-1.53-7.49-.88-11.05-6.11a1.64,1.64,0,0,1-.38-.56S271.9,228.08,287.71,220.69Z" style="opacity:0.2"></path><path d="M290.52,221.13A18.42,18.42,0,0,1,301.14,206c10.38-5.09,10.66-7.84,10.66-7.84S312.29,222.29,290.52,221.13Z" style="fill:#06A634"></path><path d="M290.52,221.13A18.42,18.42,0,0,1,301.14,206c10.38-5.09,10.66-7.84,10.66-7.84S312.29,222.29,290.52,221.13Z" style="opacity:0.2"></path><path d="M300.59,212.44a25.68,25.68,0,0,0,11.16-14.09c-.24.67-1.71,3.31-10.61,7.67a18.42,18.42,0,0,0-10.62,15.11A34.46,34.46,0,0,1,300.59,212.44Z" style="opacity:0.2"></path><path d="M292,223a18.42,18.42,0,0,1-11,14.81c-10.51,4.8-10.87,7.54-10.87,7.54S270.31,221.24,292,223Z" style="fill:#06A634"></path><path d="M292,223a18.42,18.42,0,0,1-11,14.81c-10.51,4.8-10.87,7.54-10.87,7.54S270.31,221.24,292,223Z" style="opacity:0.2"></path><path d="M281.74,231.41a25.73,25.73,0,0,0-11.56,13.77c.26-.66,1.81-3.25,10.82-7.37A18.42,18.42,0,0,0,292,223,34.44,34.44,0,0,1,281.74,231.41Z" style="opacity:0.2"></path><path d="M286.31,248.85a18.41,18.41,0,0,1-11,14.8c-10.51,4.8-10.87,7.54-10.87,7.54S264.58,247.08,286.31,248.85Z" style="fill:#06A634"></path><path d="M286.31,248.85a18.41,18.41,0,0,1-11,14.8c-10.51,4.8-10.87,7.54-10.87,7.54S264.58,247.08,286.31,248.85Z" style="opacity:0.2"></path><path d="M276,257.25A25.73,25.73,0,0,0,264.45,271c.26-.66,1.81-3.25,10.82-7.37a18.41,18.41,0,0,0,11-14.8A34.5,34.5,0,0,1,276,257.25Z" style="opacity:0.2"></path><path d="M222,243A18.43,18.43,0,0,1,204,247.51c-11.18-2.93-13.19-1-13.19-1S206.24,227.92,222,243Z" style="fill:#06A634"></path><path d="M222,243A18.43,18.43,0,0,1,204,247.51c-11.18-2.93-13.19-1-13.19-1S206.24,227.92,222,243Z" style="opacity:0.2"></path><path d="M208.65,243A25.73,25.73,0,0,0,191,246.37c.62-.34,3.46-1.37,13,1.14A18.43,18.43,0,0,0,222,243,34.63,34.63,0,0,1,208.65,243Z" style="opacity:0.2"></path><path d="M297.37,223.73s2.41-4.43,9.38-2.58,14-3.84,14-3.84S311.47,237.88,297.37,223.73Z" style="fill:#06A634"></path><path d="M297.37,223.73s2.41-4.43,9.38-2.58,14-3.84,14-3.84S311.47,237.88,297.37,223.73Z" style="opacity:0.2"></path><path d="M320.76,217.31s-7.58,9.4-13.42,6.33-10,.09-10,.09C311.47,237.88,320.76,217.31,320.76,217.31Z" style="opacity:0.2"></path><path d="M290.1,220.32s2.9-7.37-3.93-16.92-5.41-11.81-5.41-11.81S268.68,205.93,290.1,220.32Z" style="fill:#06A634"></path><path d="M290.1,220.32s2.9-7.37-3.93-16.92-5.41-11.81-5.41-11.81S268.68,205.93,290.1,220.32Z" style="opacity:0.2"></path><path d="M290.1,220.32a38.4,38.4,0,0,0-4.16-11.84c-3.43-6.61-6.39-9.18-5.3-16.15a1.63,1.63,0,0,1,.12-.74S268.68,205.93,290.1,220.32Z" style="opacity:0.2"></path><path d="M293.53,223a14.18,14.18,0,0,0,.45,13.39c4.08,6.76,2.53,8.88,2.53,8.88S308.9,231.25,293.53,223Z" style="fill:#06A634"></path><path d="M293.53,223a14.18,14.18,0,0,0,.45,13.39c4.08,6.76,2.53,8.88,2.53,8.88S308.9,231.25,293.53,223Z" style="opacity:0.2"></path><path d="M293.53,223a24.09,24.09,0,0,0,1.48,9.12c1.76,4.9,3.78,6.52,1.72,12.51a1.74,1.74,0,0,1-.22.64S308.9,231.25,293.53,223Z" style="opacity:0.2"></path><path d="M251.17,217.76a14.17,14.17,0,0,1,11-7.65c7.85-.78,8.63-3.29,8.63-3.29S267,225.14,251.17,217.76Z" style="fill:#06A634"></path><path d="M251.17,217.76a14.17,14.17,0,0,1,11-7.65c7.85-.78,8.63-3.29,8.63-3.29S267,225.14,251.17,217.76Z" style="opacity:0.2"></path><path d="M251.17,217.76a23.92,23.92,0,0,1,8.19-4.27c5-1.53,7.49-.88,11.06-6.11a1.86,1.86,0,0,0,.38-.56S267,225.14,251.17,217.76Z" style="opacity:0.2"></path><path d="M248.35,218.19a18.42,18.42,0,0,0-10.62-15.11c-10.38-5.09-10.66-7.84-10.66-7.84S226.58,219.35,248.35,218.19Z" style="fill:#06A634"></path><path d="M248.35,218.19a18.42,18.42,0,0,0-10.62-15.11c-10.38-5.09-10.66-7.84-10.66-7.84S226.58,219.35,248.35,218.19Z" style="opacity:0.2"></path><path d="M238.28,209.51a25.72,25.72,0,0,1-11.16-14.1c.24.67,1.71,3.31,10.61,7.67a18.42,18.42,0,0,1,10.62,15.11A34.35,34.35,0,0,0,238.28,209.51Z" style="opacity:0.2"></path><path d="M246.83,220.06a18.42,18.42,0,0,0,11,14.81c10.51,4.8,10.87,7.54,10.87,7.54S268.56,218.3,246.83,220.06Z" style="fill:#06A634"></path><path d="M246.83,220.06a18.42,18.42,0,0,0,11,14.81c10.51,4.8,10.87,7.54,10.87,7.54S268.56,218.3,246.83,220.06Z" style="opacity:0.2"></path><path d="M257.14,228.47a25.69,25.69,0,0,1,11.55,13.77c-.26-.66-1.81-3.25-10.82-7.37a18.42,18.42,0,0,1-11-14.81A34.41,34.41,0,0,0,257.14,228.47Z" style="opacity:0.2"></path><path d="M241.51,220.79s-2.42-4.43-9.39-2.58-14-3.84-14-3.84S227.4,234.94,241.51,220.79Z" style="fill:#06A634"></path><path d="M241.51,220.79s-2.42-4.43-9.39-2.58-14-3.84-14-3.84S227.4,234.94,241.51,220.79Z" style="opacity:0.2"></path><path d="M218.11,214.37s7.59,9.4,13.42,6.33,10,.09,10,.09C227.4,234.94,218.11,214.37,218.11,214.37Z" style="opacity:0.2"></path><path d="M248.78,217.38s-2.91-7.37,3.92-16.92,5.41-11.81,5.41-11.81S270.19,203,248.78,217.38Z" style="fill:#06A634"></path><path d="M248.78,217.38s-2.91-7.37,3.92-16.92,5.41-11.81,5.41-11.81S270.19,203,248.78,217.38Z" style="opacity:0.2"></path><path d="M248.78,217.38a38.52,38.52,0,0,1,4.15-11.84c3.44-6.61,6.39-9.18,5.3-16.15a1.47,1.47,0,0,0-.12-.74S270.19,203,248.78,217.38Z" style="opacity:0.2"></path><path d="M245.35,220.06a14.21,14.21,0,0,1-.45,13.39c-4.08,6.76-2.54,8.88-2.54,8.88S230,228.31,245.35,220.06Z" style="fill:#06A634"></path><path d="M245.35,220.06a14.21,14.21,0,0,1-.45,13.39c-4.08,6.76-2.54,8.88-2.54,8.88S230,228.31,245.35,220.06Z" style="opacity:0.2"></path><path d="M245.35,220.06a24,24,0,0,1-1.49,9.12c-1.75,4.9-3.78,6.52-1.72,12.51a2,2,0,0,0,.22.64S230,228.31,245.35,220.06Z" style="opacity:0.2"></path><path d="M224.82,246.48a14.2,14.2,0,0,1,10.66-8.13c7.81-1.12,8.48-3.66,8.48-3.66S240.94,253.16,224.82,246.48Z" style="fill:#06A634"></path><path d="M224.82,246.48a14.2,14.2,0,0,1,10.66-8.13c7.81-1.12,8.48-3.66,8.48-3.66S240.94,253.16,224.82,246.48Z" style="opacity:0.2"></path><path d="M224.82,246.48a24.11,24.11,0,0,1,8-4.63c4.9-1.74,7.44-1.2,10.77-6.58a1.92,1.92,0,0,0,.36-.58S240.94,253.16,224.82,246.48Z" style="opacity:0.2"></path><path d="M224,149.59s-9-1.15-14.82,6.4-8.85,6.75-8.85,6.75S221.53,170.46,224,149.59Z" style="fill:#06A634"></path><path d="M224,149.59s-9-1.15-14.82,6.4-8.85,6.75-8.85,6.75S221.53,170.46,224,149.59Z" style="opacity:0.2"></path><path d="M224,149.59a28.91,28.91,0,0,0-9.58,5.68c-4.72,4.12-5.65,7.11-13.27,7.43a2,2,0,0,1-.82,0S221.53,170.46,224,149.59Z" style="opacity:0.2"></path><path d="M151.58,245.28a14.18,14.18,0,0,1-3.16,13c-5.36,5.79-4.28,8.18-4.28,8.18S134.85,250.24,151.58,245.28Z" style="fill:#06A634"></path><path d="M151.58,245.28a14.18,14.18,0,0,1-3.16,13c-5.36,5.79-4.28,8.18-4.28,8.18S134.85,250.24,151.58,245.28Z" style="opacity:0.2"></path><path d="M151.58,245.28a24.12,24.12,0,0,1-3.3,8.63c-2.71,4.44-5,5.62-4.22,11.9a1.83,1.83,0,0,0,.08.67S134.85,250.24,151.58,245.28Z" style="opacity:0.2"></path><path d="M151.86,239.52s-6.46-6.41-4.07-15.62-.12-11.13-.12-11.13S166.78,224.72,151.86,239.52Z" style="fill:#06A634"></path><path d="M151.86,239.52s-6.46-6.41-4.07-15.62-.12-11.13-.12-11.13S166.78,224.72,151.86,239.52Z" style="opacity:0.2"></path><path d="M151.86,239.52a29,29,0,0,1-1.42-11.05c.35-6.26,2.13-8.83-2.3-15a2.21,2.21,0,0,0-.47-.67S166.78,224.72,151.86,239.52Z" style="opacity:0.2"></path><path d="M148.8,241.31A22.19,22.19,0,0,0,132.7,226c-13.46-3.58-14.44-6.76-14.44-6.76S123.35,247.8,148.8,241.31Z" style="fill:#06A634"></path><path d="M148.8,241.31A22.19,22.19,0,0,0,132.7,226c-13.46-3.58-14.44-6.76-14.44-6.76S123.35,247.8,148.8,241.31Z" style="opacity:0.2"></path><path d="M134.86,233.42a31,31,0,0,1-16.5-14c.44.73,2.8,3.5,14.34,6.57a22.19,22.19,0,0,1,16.1,15.35A41.56,41.56,0,0,0,134.86,233.42Z" style="opacity:0.2"></path><path d="M152.13,244.18s2-8.87,11.13-11.7,9.39-6,9.39-6S172.57,249.05,152.13,244.18Z" style="fill:#06A634"></path><path d="M152.13,244.18s2-8.87,11.13-11.7,9.39-6,9.39-6S172.57,249.05,152.13,244.18Z" style="opacity:0.2"></path><path d="M152.13,244.18a29.11,29.11,0,0,1,8.64-7c5.5-3,8.63-2.85,11.57-9.88a2.38,2.38,0,0,0,.31-.75S172.57,249.05,152.13,244.18Z" style="opacity:0.2"></path><path d="M353.25,219.08a14.19,14.19,0,0,1,11-7.65c7.86-.77,8.64-3.28,8.64-3.28S369.06,226.46,353.25,219.08Z" style="fill:#06A634"></path><path d="M353.25,219.08a14.19,14.19,0,0,1,11-7.65c7.86-.77,8.64-3.28,8.64-3.28S369.06,226.46,353.25,219.08Z" style="opacity:0.2"></path><path d="M353.25,219.08a24.24,24.24,0,0,1,8.2-4.27c5-1.52,7.49-.87,11.06-6.1a1.86,1.86,0,0,0,.38-.56S369.06,226.46,353.25,219.08Z" style="opacity:0.2"></path><path d="M350.44,219.52a18.42,18.42,0,0,0-10.62-15.11c-10.38-5.09-10.66-7.84-10.66-7.84S328.67,220.68,350.44,219.52Z" style="fill:#06A634"></path><path d="M350.44,219.52a18.42,18.42,0,0,0-10.62-15.11c-10.38-5.09-10.66-7.84-10.66-7.84S328.67,220.68,350.44,219.52Z" style="opacity:0.2"></path><path d="M340.37,210.83a25.71,25.71,0,0,1-11.16-14.09c.24.67,1.71,3.31,10.61,7.67a18.42,18.42,0,0,1,10.62,15.11A34.46,34.46,0,0,0,340.37,210.83Z" style="opacity:0.2"></path><path d="M348.92,221.39a18.43,18.43,0,0,0,11,14.81c10.51,4.8,10.87,7.54,10.87,7.54S370.65,219.63,348.92,221.39Z" style="fill:#06A634"></path><path d="M348.92,221.39a18.43,18.43,0,0,0,11,14.81c10.51,4.8,10.87,7.54,10.87,7.54S370.65,219.63,348.92,221.39Z" style="opacity:0.2"></path><path d="M359.23,229.79a25.79,25.79,0,0,1,11.55,13.78c-.26-.66-1.81-3.26-10.82-7.37a18.43,18.43,0,0,1-11-14.81A34.3,34.3,0,0,0,359.23,229.79Z" style="opacity:0.2"></path><path d="M360.45,248.36a14.38,14.38,0,0,0,14.1,5.81c9.32-1.56,10.78.35,10.78.35S374.52,236.23,360.45,248.36Z" style="fill:#06A634"></path><path d="M360.45,248.36a14.38,14.38,0,0,0,14.1,5.81c9.32-1.56,10.78.35,10.78.35S374.52,236.23,360.45,248.36Z" style="opacity:0.2"></path><path d="M371.21,249.65a19.55,19.55,0,0,1,14,4.77c-.47-.37-2.67-1.59-10.66-.25a14.38,14.38,0,0,1-14.1-5.81A25.42,25.42,0,0,0,371.21,249.65Z" style="opacity:0.2"></path><path d="M362.14,251.9s-2.42-4.43-9.38-2.57-14-3.85-14-3.85S348,266.06,362.14,251.9Z" style="fill:#06A634"></path><path d="M362.14,251.9s-2.42-4.43-9.38-2.57-14-3.85-14-3.85S348,266.06,362.14,251.9Z" style="opacity:0.2"></path><path d="M338.74,245.48s7.59,9.4,13.42,6.33,10,.09,10,.09C348,266.06,338.74,245.48,338.74,245.48Z" style="opacity:0.2"></path><path d="M350.87,218.7s-2.91-7.36,3.92-16.91S360.2,190,360.2,190,372.28,204.32,350.87,218.7Z" style="fill:#06A634"></path><path d="M350.87,218.7s-2.91-7.36,3.92-16.91S360.2,190,360.2,190,372.28,204.32,350.87,218.7Z" style="opacity:0.2"></path><path d="M350.87,218.7A38.18,38.18,0,0,1,355,206.87c3.43-6.61,6.39-9.18,5.3-16.15a1.63,1.63,0,0,0-.12-.74S372.28,204.32,350.87,218.7Z" style="opacity:0.2"></path><path d="M347.43,221.38a14.18,14.18,0,0,1-.45,13.39c-4.08,6.77-2.53,8.89-2.53,8.89S332.06,229.64,347.43,221.38Z" style="fill:#06A634"></path><path d="M347.43,221.38a14.18,14.18,0,0,1-.45,13.39c-4.08,6.77-2.53,8.89-2.53,8.89S332.06,229.64,347.43,221.38Z" style="opacity:0.2"></path><path d="M347.43,221.38a23.89,23.89,0,0,1-1.48,9.13c-1.75,4.9-3.78,6.52-1.72,12.51a1.74,1.74,0,0,0,.22.64S332.06,229.64,347.43,221.38Z" style="opacity:0.2"></path><path d="M254,166.77a14.19,14.19,0,0,0-11-7.65c-7.86-.78-8.63-3.28-8.63-3.28S238.19,174.15,254,166.77Z" style="fill:#06A634"></path><path d="M254,166.77a14.19,14.19,0,0,0-11-7.65c-7.86-.78-8.63-3.28-8.63-3.28S238.19,174.15,254,166.77Z" style="opacity:0.2"></path><path d="M254,166.77a24,24,0,0,0-8.2-4.27c-5-1.52-7.49-.87-11.05-6.1a1.75,1.75,0,0,1-.38-.56S238.19,174.15,254,166.77Z" style="opacity:0.2"></path><path d="M258.33,169.08a18.41,18.41,0,0,1-11,14.8c-10.52,4.81-10.88,7.55-10.88,7.55S236.6,167.31,258.33,169.08Z" style="fill:#06A634"></path><path d="M258.33,169.08a18.41,18.41,0,0,1-11,14.8c-10.52,4.81-10.88,7.55-10.88,7.55S236.6,167.31,258.33,169.08Z" style="opacity:0.2"></path><path d="M248,177.48a25.67,25.67,0,0,0-11.55,13.78c.25-.66,1.8-3.26,10.82-7.38a18.41,18.41,0,0,0,11-14.8A34.33,34.33,0,0,1,248,177.48Z" style="opacity:0.2"></path><path d="M156.9,254.32c-4.37,1.61-6.08,5.51-3.68,12.77,2,6.15-3,10.5.42,13.06C163.51,287.49,177.1,246.87,156.9,254.32Z" style="fill:#06A634"></path><path d="M156.9,254.32c-4.37,1.61-6.08,5.51-3.68,12.77,2,6.15-3,10.5.42,13.06C163.51,287.49,177.1,246.87,156.9,254.32Z" style="fill:#fff;opacity:0.4"></path><path d="M156.9,254.32a8.17,8.17,0,0,0-1.3.6c.07,0,7.6-.68,8.1,4.64s-3.7,21.83-10.06,20.59C163.51,287.49,177.1,246.87,156.9,254.32Z" style="opacity:0.1"></path><path d="M233.63,238.49c-4.36,1.61-6.07,5.5-3.67,12.77,2,6.15-3,10.5.41,13.06C240.25,271.65,253.84,231,233.63,238.49Z" style="fill:#06A634"></path><path d="M233.63,238.49c-4.36,1.61-6.07,5.5-3.67,12.77,2,6.15-3,10.5.41,13.06C240.25,271.65,253.84,231,233.63,238.49Z" style="fill:#fff;opacity:0.4"></path><path d="M233.63,238.49a8.48,8.48,0,0,0-1.29.6c.07,0,7.6-.68,8.1,4.63s-3.71,21.84-10.07,20.6C240.25,271.65,253.84,231,233.63,238.49Z" style="opacity:0.1"></path><path d="M346.44,240.5c4.36,1.61,6.07,5.51,3.67,12.77-2,6.15,3,10.51-.41,13.06C339.82,273.67,326.24,233.06,346.44,240.5Z" style="fill:#06A634"></path><path d="M346.44,240.5c4.36,1.61,6.07,5.51,3.67,12.77-2,6.15,3,10.51-.41,13.06C339.82,273.67,326.24,233.06,346.44,240.5Z" style="fill:#fff;opacity:0.4"></path><path d="M346.44,240.5a9.56,9.56,0,0,1,1.29.6c-.07,0-7.6-.68-8.1,4.64s3.71,21.84,10.07,20.59C339.82,273.67,326.24,233.06,346.44,240.5Z" style="opacity:0.1"></path><path d="M295.32,224.11c3.93,1.45,5.47,5,3.31,11.51-1.83,5.54,2.72,9.46-.38,11.77C289.35,254,277.11,217.4,295.32,224.11Z" style="fill:#06A634"></path><path d="M295.32,224.11c3.93,1.45,5.47,5,3.31,11.51-1.83,5.54,2.72,9.46-.38,11.77C289.35,254,277.11,217.4,295.32,224.11Z" style="fill:#fff;opacity:0.4"></path><path d="M295.32,224.11a9.52,9.52,0,0,1,1.16.54c-.06,0-6.85-.61-7.3,4.18s3.34,19.68,9.07,18.56C289.35,254,277.11,217.4,295.32,224.11Z" style="opacity:0.1"></path><path d="M198.66,198.14c3.93,1.44,5.47,5,3.3,11.5-1.82,5.54,2.73,9.47-.37,11.77C192.69,228,180.45,191.43,198.66,198.14Z" style="fill:#06A634"></path><path d="M198.66,198.14c3.93,1.44,5.47,5,3.3,11.5-1.82,5.54,2.73,9.47-.37,11.77C192.69,228,180.45,191.43,198.66,198.14Z" style="fill:#fff;opacity:0.5"></path><path d="M198.66,198.14a8.19,8.19,0,0,1,1.16.53c-.06,0-6.85-.61-7.3,4.18s3.34,19.68,9.07,18.56C192.69,228,180.45,191.43,198.66,198.14Z" style="opacity:0.1"></path><path d="M212.25,140.4c-3.93,1.45-5.47,5-3.31,11.51,1.83,5.54-2.72,9.46.38,11.77C218.22,170.29,230.46,133.69,212.25,140.4Z" style="fill:#06A634"></path><path d="M212.25,140.4c-3.93,1.45-5.47,5-3.31,11.51,1.83,5.54-2.72,9.46.38,11.77C218.22,170.29,230.46,133.69,212.25,140.4Z" style="fill:#fff;opacity:0.5"></path><path d="M212.25,140.4a8.87,8.87,0,0,0-1.16.54c.06,0,6.84-.61,7.3,4.18s-3.34,19.68-9.07,18.56C218.22,170.29,230.46,133.69,212.25,140.4Z" style="opacity:0.1"></path><path d="M217.18,314.41c-3.94,1.45-5.47,5-3.31,11.51,1.83,5.54-2.73,9.46.37,11.76C223.14,344.29,235.38,307.7,217.18,314.41Z" style="fill:#06A634"></path><path d="M217.18,314.41c-3.94,1.45-5.47,5-3.31,11.51,1.83,5.54-2.73,9.46.37,11.76C223.14,344.29,235.38,307.7,217.18,314.41Z" style="fill:#fff;opacity:0.5"></path><path d="M217.18,314.41A7,7,0,0,0,216,315c.06,0,6.85-.62,7.3,4.17s-3.34,19.68-9.07,18.56C223.14,344.29,235.38,307.7,217.18,314.41Z" style="opacity:0.1"></path><path d="M238.66,172.18c-4.36,1.61-6.07,5.51-3.67,12.77,2,6.15-3,10.51.41,13.06C245.28,205.35,258.87,164.74,238.66,172.18Z" style="fill:#06A634"></path><path d="M238.66,172.18c-4.36,1.61-6.07,5.51-3.67,12.77,2,6.15-3,10.51.41,13.06C245.28,205.35,258.87,164.74,238.66,172.18Z" style="fill:#fff;opacity:0.30000000000000004"></path><path d="M238.66,172.18a9.56,9.56,0,0,0-1.29.6c.07,0,7.6-.68,8.1,4.64S241.76,199.26,235.4,198C245.28,205.35,258.87,164.74,238.66,172.18Z" style="opacity:0.1"></path><path d="M224.8,313a18.43,18.43,0,0,0-18.1,3.65c-8.84,7.45-11.47,6.6-11.47,6.6S217.1,333.43,224.8,313Z" style="fill:#06A634"></path><path d="M224.8,313a18.43,18.43,0,0,0-18.1,3.65c-8.84,7.45-11.47,6.6-11.47,6.6S217.1,333.43,224.8,313Z" style="opacity:0.2"></path><path d="M212.8,318.75a25.73,25.73,0,0,1-17.4,4.56c.71,0,3.72-.24,11.3-6.63A18.43,18.43,0,0,1,224.8,313,34.52,34.52,0,0,0,212.8,318.75Z" style="opacity:0.2"></path></g></svg>
